<svg width="1280" height="320" xmlns="http://www.w3.org/2000/svg">
    <path fill="#0a0b0a" stroke="none" d="M 0 0 L 1280 0 L 1280 320 L 0 320 Z"/>
    <g>
        <path fill="none" stroke="#5e7c4e" d="M 24 24 L 24 56 M 24 24 L 56 24"/>
        <path fill="none" stroke="#5e7c4e" d="M 1256 24 L 1256 56 M 1256 24 L 1224 24"/>
        <path fill="none" stroke="#5e7c4e" d="M 24 296 L 24 264 M 24 296 L 56 296"/>
        <path fill="none" stroke="#5e7c4e" d="M 1256 296 L 1256 264 M 1256 296 L 1224 296"/>
    </g>
    <path fill="#a8d68a" stroke="none" d="M 79 60 C 79 62.761425 76.76142 65 74 65 C 71.23858 65 69 62.761425 69 60 C 69 57.238575 71.23858 55 74 55 C 76.76142 55 79 57.238575 79 60 Z"/>
    <g>
        <path fill="#d6d6cf" stroke="none" d="M 93.296 65 L 93.296 53.319996 L 95.488 53.319996 L 98.88 63.032 Q 98.848 62.583996 98.8 61.944004 Q 98.752 61.304 98.728 60.616 Q 98.704 59.928 98.704 59.352 L 98.704 53.319996 L 100.30401 53.319996 L 100.30401 65 L 98.128 65 L 94.73601 55.288 Q 94.768 55.72 94.80801 56.336 Q 94.848 56.951996 94.88 57.624004 Q 94.912 58.295998 94.912 58.872 L 94.912 65 L 93.296 65 Z M 106.304 65 L 106.304 53.319996 L 113.16799 53.319996 L 113.16799 54.856 L 108 54.856 L 108 58.184 L 112.608 58.184 L 112.608 59.672 L 108 59.672 L 108 63.464 L 113.16799 63.464 L 113.16799 65 L 106.304 65 Z M 118.144 65 L 121.44 59.048004 L 118.336 53.319996 L 120.288 53.319996 L 121.92 56.503998 Q 122.063995 56.808 122.208 57.111996 Q 122.352 57.416004 122.432 57.576004 Q 122.496 57.416004 122.631996 57.111996 Q 122.768 56.808 122.928 56.503998 L 124.591995 53.319996 L 126.464 53.319996 L 123.36 58.984 L 126.656 65 L 124.704 65 L 122.895996 61.544 Q 122.73601 61.239998 122.592 60.928 Q 122.448 60.616 122.368 60.44 Q 122.304 60.616 122.159996 60.928 Q 122.016 61.239998 121.872 61.527996 L 120.032 65 L 118.144 65 Z M 135.2 65.16 Q 133.51999 65.16 132.608 64.24 Q 131.696 63.319996 131.696 61.736004 L 131.696 53.319996 L 133.424 53.319996 L 133.424 61.72 Q 133.424 62.616 133.872 63.128 Q 134.31999 63.639996 135.2 63.639996 Q 136.07999 63.639996 136.528 63.128 Q 136.976 62.616 136.976 61.72 L 136.976 53.319996 L 138.704 53.319996 L 138.704 61.736004 Q 138.704 63.336 137.79199 64.248 Q 136.87999 65.16 135.2 65.16 Z M 144.208 65 L 144.208 53.319996 L 146.576 53.319996 L 147.968 58.360004 L 149.40799 53.319996 L 151.79199 53.319996 L 151.79199 65 L 150.16 65 L 150.16 59.784004 Q 150.16 58.888004 150.2 57.84 Q 150.23999 56.791996 150.304 55.767998 Q 150.368 54.743996 150.448 53.912 L 148.688 59.864 L 147.232 59.864 L 145.536 54.055996 Q 145.68 55.192 145.76 56.664 Q 145.84 58.136 145.84 59.784004 L 145.84 65 L 144.208 65 Z"/>
    </g>
    <path fill="#000000" stroke="#1f221f" d="M 160 48 L 160 72"/>
    <g>
        <path fill="#a8d68a" stroke="none" d="M 173.288 65 L 173.288 57.3 L 174.548 57.3 L 174.548 58.77 L 174.562 58.77 Q 174.65999 58 175.192 57.58 Q 175.72398 57.159996 176.606 57.159996 Q 177.76799 57.159996 178.454 57.874 Q 179.14 58.588 179.14 59.82 L 179.14 65 L 177.88 65 L 177.88 60.043995 Q 177.88 59.162 177.43898 58.693 Q 176.99802 58.224 176.24202 58.224 Q 175.45802 58.224 175.003 58.714 Q 174.548 59.204 174.548 60.1 L 174.548 65 L 173.288 65 Z M 182.7 65 L 185.43 61.038 L 182.86798 57.3 L 184.352 57.3 L 185.87802 59.68 Q 185.976 59.834 186.067 60.016 Q 186.158 60.197994 186.214 60.31 Q 186.256 60.197994 186.34702 60.016 Q 186.438 59.834 186.536 59.68 L 188.062 57.3 L 189.546 57.3 L 186.984 61.051994 L 189.7 65 L 188.21602 65 L 186.564 62.48 Q 186.466 62.326 186.375 62.123 Q 186.284 61.92 186.214 61.793995 Q 186.158 61.92 186.053 62.123 Q 185.948 62.326 185.836 62.48 L 184.184 65 L 182.7 65 Z M 192.83998 65 L 192.83998 57.3 L 193.932 57.3 L 193.932 58.322 L 193.95999 58.322 Q 194.03 57.804 194.373 57.482 Q 194.716 57.159996 195.248 57.159996 Q 195.752 57.159996 196.102 57.454 Q 196.45201 57.747997 196.60599 58.252003 L 196.62 58.252003 Q 196.718 57.747997 197.061 57.454 Q 197.40402 57.159996 197.936 57.159996 Q 198.678 57.159996 199.11902 57.713005 Q 199.56001 58.266 199.56001 59.148003 L 199.56001 65 L 198.384 65 L 198.384 59.134 Q 198.384 58.672 198.15999 58.399 Q 197.936 58.126 197.54399 58.126 Q 197.166 58.126 196.942 58.392 Q 196.718 58.658 196.718 59.12 L 196.718 65 L 195.68199 65 L 195.68199 59.134 Q 195.68199 58.672 195.45801 58.399 Q 195.234 58.126 194.856 58.126 Q 194.464 58.126 194.24 58.392 Q 194.016 58.658 194.016 59.12 L 194.016 65 L 192.83998 65 Z M 203.96 60.939995 L 203.96 59.82 L 208.43999 59.82 L 208.43999 60.939995 L 203.96 60.939995 Z M 213.568 65 L 213.568 57.3 L 214.82802 57.3 L 214.82802 58.77 L 214.856 58.77 Q 214.95401 58.028 215.486 57.593998 Q 216.018 57.159996 216.914 57.159996 Q 218.118 57.159996 218.769 57.881 Q 219.42 58.602 219.42 59.932003 L 219.42 60.589996 L 218.16 60.589996 L 218.16 59.932003 Q 218.16 58.252003 216.52199 58.252003 Q 215.696 58.252003 215.26201 58.728004 Q 214.82802 59.204 214.82802 60.1 L 214.82802 65 L 213.568 65 Z M 225.892 65.112 Q 224.60399 65.112 223.897 64.531 Q 223.19 63.950005 223.19 62.886 L 224.45001 62.886 Q 224.45001 63.418 224.828 63.719006 Q 225.20598 64.02 225.892 64.02 L 226.508 64.02 Q 227.20801 64.02 227.59302 63.712 Q 227.978 63.404003 227.978 62.844 Q 227.978 61.85 227.068 61.724003 L 224.94002 61.416004 Q 224.15599 61.304 223.722 60.765 Q 223.288 60.225998 223.288 59.344 Q 223.288 58.336 223.98099 57.762 Q 224.674 57.188 225.892 57.188 L 226.508 57.188 Q 227.628 57.188 228.335 57.741 Q 229.042 58.294003 229.098 59.190002 L 227.824 59.190002 Q 227.796 58.784 227.439 58.517994 Q 227.082 58.252003 226.508 58.252003 L 225.892 58.252003 Q 225.24802 58.252003 224.884 58.546 Q 224.52 58.840004 224.52 59.344 Q 224.52 60.155994 225.262 60.267998 L 227.24998 60.548 Q 229.21 60.828003 229.21 62.844 Q 229.21 63.922 228.503 64.517 Q 227.796 65.112 226.508 65.112 L 225.892 65.112 Z M 243.05 66.54 L 248.02 53.379997 L 249.35 53.379997 L 244.37999 66.54 L 243.05 66.54 Z M 265.752 65.14 Q 264.604 65.14 263.911 64.37 Q 263.218 63.6 263.218 62.284 L 263.218 60.03 Q 263.218 58.7 263.904 57.93 Q 264.59 57.159996 265.752 57.159996 Q 266.62 57.159996 267.187 57.593998 Q 267.754 58.028 267.866 58.77 L 267.88 58.77 L 267.852 57.02 L 267.852 54.780003 L 269.112 54.780003 L 269.112 65 L 267.852 65 L 267.852 63.53 L 267.838 63.53 Q 267.74 64.286 267.18 64.713 Q 266.62 65.14 265.752 65.14 Z M 266.172 64.048 Q 266.956 64.048 267.404 63.558002 Q 267.852 63.068 267.852 62.2 L 267.852 60.1 Q 267.852 59.232 267.404 58.742 Q 266.956 58.252003 266.172 58.252003 Q 265.374 58.252003 264.926 58.665 Q 264.478 59.078 264.478 60.03 L 264.478 62.269997 Q 264.478 63.208004 264.926 63.627995 Q 265.374 64.048 266.172 64.048 Z M 273.19 65 L 273.19 63.852 L 275.92 63.852 L 275.92 58.448 L 273.47 58.448 L 273.47 57.3 L 277.18 57.3 L 277.18 63.852 L 279.77 63.852 L 279.77 65 L 273.19 65 Z M 276.41 55.913998 Q 275.948 55.913998 275.682 55.675995 Q 275.416 55.438 275.416 55.031998 Q 275.416 54.612 275.682 54.367 Q 275.948 54.121998 276.41 54.121998 Q 276.872 54.121998 277.138 54.367 Q 277.404 54.612 277.404 55.031998 Q 277.404 55.438 277.138 55.675995 Q 276.872 55.913998 276.41 55.913998 Z M 283.288 67.52 L 283.288 57.3 L 284.548 57.3 L 284.548 58.77 L 284.562 58.77 Q 284.66 58.014 285.22 57.587 Q 285.78 57.159996 286.648 57.159996 Q 287.81 57.159996 288.496 57.923 Q 289.182 58.686005 289.182 60.016 L 289.182 62.269997 Q 289.182 63.6 288.496 64.37 Q 287.81 65.14 286.648 65.14 Q 285.78 65.14 285.22 64.706 Q 284.66 64.272 284.562 63.53 L 284.52 63.53 L 284.548 65.28 L 284.548 67.52 L 283.288 67.52 Z M 286.228 64.048 Q 287.026 64.048 287.474 63.627995 Q 287.922 63.208004 287.922 62.269997 L 287.922 60.03 Q 287.922 59.078 287.474 58.665 Q 287.026 58.252003 286.228 58.252003 Q 285.458 58.252003 285.003 58.742 Q 284.548 59.232 284.548 60.1 L 284.548 62.2 Q 284.548 63.068 285.003 63.558002 Q 285.458 64.048 286.228 64.048 Z M 293.288 67.52 L 293.288 57.3 L 294.548 57.3 L 294.548 58.77 L 294.562 58.77 Q 294.66 58.014 295.22 57.587 Q 295.78 57.159996 296.648 57.159996 Q 297.81 57.159996 298.496 57.923 Q 299.182 58.686005 299.182 60.016 L 299.182 62.269997 Q 299.182 63.6 298.496 64.37 Q 297.81 65.14 296.648 65.14 Q 295.78 65.14 295.22 64.706 Q 294.66 64.272 294.562 63.53 L 294.52 63.53 L 294.548 65.28 L 294.548 67.52 L 293.288 67.52 Z M 296.228 64.048 Q 297.026 64.048 297.474 63.627995 Q 297.922 63.208004 297.922 62.269997 L 297.922 60.03 Q 297.922 59.078 297.474 58.665 Q 297.026 58.252003 296.228 58.252003 Q 295.458 58.252003 295.003 58.742 Q 294.548 59.232 294.548 60.1 L 294.548 62.2 Q 294.548 63.068 295.003 63.558002 Q 295.458 64.048 296.228 64.048 Z M 306.2 65.14 Q 304.842 65.14 304.009 64.321 Q 303.176 63.502 303.176 62.06 L 303.176 60.24 Q 303.176 58.797997 304.009 57.978996 Q 304.842 57.159996 306.2 57.159996 Q 307.11 57.159996 307.789 57.524 Q 308.468 57.888 308.846 58.546 Q 309.224 59.204 309.224 60.1 L 309.224 61.472 L 304.408 61.472 L 304.408 62.2 Q 304.408 63.054005 304.898 63.550995 Q 305.388 64.048 306.2 64.048 Q 306.9 64.048 307.355 63.775 Q 307.81 63.502 307.908 63.04 L 309.168 63.04 Q 309.042 64.006 308.23 64.573 Q 307.418 65.14 306.2 65.14 Z M 304.408 60.492 L 307.992 60.492 L 307.992 60.1 Q 307.992 59.190002 307.523 58.693 Q 307.054 58.196 306.2 58.196 Q 305.346 58.196 304.877 58.693 Q 304.408 59.190002 304.408 60.1 L 304.408 60.492 Z M 313.568 65 L 313.568 57.3 L 314.828 57.3 L 314.828 58.77 L 314.856 58.77 Q 314.954 58.028 315.486 57.593998 Q 316.018 57.159996 316.914 57.159996 Q 318.118 57.159996 318.769 57.881 Q 319.42 58.602 319.42 59.932003 L 319.42 60.589996 L 318.16 60.589996 L 318.16 59.932003 Q 318.16 58.252003 316.522 58.252003 Q 315.696 58.252003 315.262 58.728004 Q 314.828 59.204 314.828 60.1 L 314.828 65 L 313.568 65 Z"/>
    </g>
    <g>
        <path fill="#a8d68a" stroke="none" d="M 77.9 141.35 L 73.87 137.32 L 77.9 133.277 L 81.93 137.32 L 77.9 141.35 Z M 95.70001 142 L 95.70001 132.51 L 101.16001 132.51 L 101.16001 133.576 L 96.85701 133.576 L 96.85701 136.514 L 100.705 136.514 L 100.705 137.554 L 96.85701 137.554 L 96.85701 140.934 L 101.16001 140.934 L 101.16001 142 L 95.70001 142 Z M 107.91501 142 L 107.91501 133.576 L 105.315 133.576 L 105.315 132.51 L 111.685005 132.51 L 111.685005 133.576 L 109.08501 133.576 L 109.08501 142 L 107.91501 142 Z M 116.009 142 L 116.009 132.51 L 117.179 132.51 L 117.179 136.566 L 120.221 136.566 L 120.221 132.51 L 121.391 132.51 L 121.391 142 L 120.221 142 L 120.221 137.632 L 117.179 137.632 L 117.179 142 L 116.009 142 Z M 126.3 142 L 126.3 132.51 L 131.76 132.51 L 131.76 133.576 L 127.457 133.576 L 127.457 136.514 L 131.305 136.514 L 131.305 137.554 L 127.457 137.554 L 127.457 140.934 L 131.76 140.934 L 131.76 142 L 126.3 142 Z M 136.40901 142 L 136.40901 132.51 L 139.33401 132.51 Q 140.17902 132.51 140.81601 132.85449 Q 141.45302 133.199 141.80402 133.81 Q 142.15501 134.421 142.15501 135.24 Q 142.15501 136.202 141.66101 136.891 Q 141.167 137.58 140.348 137.853 L 142.28502 142 L 140.99802 142 L 139.139 137.97 L 137.56601 137.97 L 137.56601 142 L 136.40901 142 Z M 137.56601 136.91699 L 139.33401 136.91699 Q 140.06201 136.91699 140.50401 136.4555 Q 140.94601 135.994 140.94601 135.24 Q 140.94601 134.473 140.50401 134.018 Q 140.06201 133.563 139.33401 133.563 L 137.56601 133.563 L 137.56601 136.91699 Z M 146.70001 142 L 146.70001 132.51 L 152.16 132.51 L 152.16 133.576 L 147.85701 133.576 L 147.85701 136.514 L 151.70502 136.514 L 151.70502 137.554 L 147.85701 137.554 L 147.85701 140.934 L 152.16 140.934 L 152.16 142 L 146.70001 142 Z M 159.5 142.13 Q 158.17401 142.13 157.472 141.3955 Q 156.77 140.661 156.77 139.4 L 156.77 132.51 L 157.94 132.51 L 157.94 139.4 Q 157.94 140.18 158.3235 140.635 Q 158.707 141.09 159.5 141.09 Q 160.28 141.09 160.67001 140.635 Q 161.06001 140.18 161.06001 139.4 L 161.06001 132.51 L 162.23001 132.51 L 162.23001 139.4 Q 162.23001 140.674 161.5345 141.402 Q 160.839 142.13 159.5 142.13 Z M 166.73601 142 L 166.73601 132.51 L 168.465 132.51 L 169.674 136.618 L 170.935 132.51 L 172.66399 132.51 L 172.66399 142 L 171.533 142 L 171.533 137.515 Q 171.533 136.878 171.5525 136.0525 Q 171.572 135.227 171.61101 134.382 Q 171.65001 133.537 171.702 132.861 L 170.168 137.762 L 169.154 137.762 L 167.685 132.978 Q 167.789 133.94 167.828 135.084 Q 167.867 136.228 167.867 137.515 L 167.867 142 L 166.73601 142 Z M 190.152 142.13 Q 188.77402 142.13 187.955 141.402 Q 187.136 140.674 187.136 139.4 L 188.306 139.4 Q 188.306 140.193 188.813 140.6415 Q 189.31999 141.09 190.152 141.09 Q 190.958 141.09 191.439 140.622 Q 191.92 140.154 191.92 139.4 Q 191.92 138.828 191.6145 138.4055 Q 191.30899 137.983 190.737 137.827 L 189.29399 137.424 Q 188.39699 137.164 187.8835 136.4945 Q 187.37001 135.825 187.37001 134.915 Q 187.37001 134.161 187.708 133.589 Q 188.04599 133.017 188.65698 132.6985 Q 189.26799 132.38 190.06099 132.38 Q 190.867 132.38 191.4845 132.6985 Q 192.10199 133.017 192.453 133.5825 Q 192.804 134.148 192.804 134.889 L 191.634 134.889 Q 191.634 134.239 191.192 133.8295 Q 190.75 133.42 190.06099 133.42 Q 189.37198 133.42 188.943 133.8295 Q 188.51399 134.239 188.51399 134.889 Q 188.51399 135.409 188.7935 135.7795 Q 189.073 136.15 189.58 136.293 L 191.062 136.709 Q 192.011 136.969 192.53749 137.6905 Q 193.064 138.412 193.064 139.4 Q 193.064 140.648 192.271 141.389 Q 191.47801 142.13 190.152 142.13 Z M 197.791 142 L 196.65997 132.51 L 197.73901 132.51 L 198.48 139.53 Q 198.532 139.959 198.558 140.4205 Q 198.584 140.882 198.597 141.155 Q 198.623 140.882 198.66849 140.4205 Q 198.714 139.959 198.76599 139.53 L 199.702 132.51 L 200.963 132.51 L 201.821 139.53 Q 201.873 139.959 201.925 140.4205 Q 201.97699 140.882 202.00299 141.155 Q 202.02899 140.882 202.0615 140.4205 Q 202.094 139.959 202.146 139.53 L 202.913 132.51 L 203.93999 132.51 L 202.78299 142 L 201.314 142 L 200.456 134.85 Q 200.40399 134.408 200.378 133.9855 Q 200.35199 133.563 200.32597 133.329 Q 200.29999 133.563 200.27399 133.9855 Q 200.24799 134.408 200.18298 134.85 L 199.26 142 L 197.791 142 Z M 207.24998 142 L 209.71999 132.51 L 211.29298 132.51 L 213.74998 142 L 212.56699 142 L 211.943 139.478 L 209.06999 139.478 L 208.446 142 L 207.24998 142 Z M 209.30399 138.49 L 211.69598 138.49 L 210.96799 135.565 Q 210.76 134.733 210.64299 134.174 Q 210.52599 133.615 210.5 133.446 Q 210.47398 133.615 210.357 134.174 Q 210.24 134.733 210.032 135.552 L 209.30399 138.49 Z M 218.00899 142 L 218.00899 132.51 L 220.934 132.51 Q 221.77899 132.51 222.416 132.85449 Q 223.05298 133.199 223.40399 133.81 Q 223.755 134.421 223.755 135.24 Q 223.755 136.202 223.26099 136.891 Q 222.76698 137.58 221.94798 137.853 L 223.88498 142 L 222.598 142 L 220.73898 137.97 L 219.16599 137.97 L 219.16599 142 L 218.00899 142 Z M 219.16599 136.91699 L 220.934 136.91699 Q 221.66199 136.91699 222.10399 136.4555 Q 222.54597 135.994 222.54597 135.24 Q 222.54597 134.473 222.10399 134.018 Q 221.66199 133.563 220.934 133.563 L 219.16599 133.563 L 219.16599 136.91699 Z M 227.93599 142 L 227.93599 132.51 L 229.66498 132.51 L 230.87396 136.618 L 232.13498 132.51 L 233.86398 132.51 L 233.86398 142 L 232.73299 142 L 232.73299 137.515 Q 232.73299 136.878 232.7525 136.0525 Q 232.77199 135.227 232.81099 134.382 Q 232.84998 133.537 232.90198 132.861 L 231.36798 137.762 L 230.35399 137.762 L 228.88496 132.978 Q 228.98898 133.94 229.02798 135.084 Q 229.06697 136.228 229.06697 137.515 L 229.06697 142 L 227.93599 142 Z M 251.29996 138.62 Q 250.81898 138.62 250.52647 138.334 Q 250.23398 138.048 250.23398 137.593 Q 250.23398 137.112 250.52647 136.813 Q 250.81898 136.514 251.29996 136.514 Q 251.78098 136.514 252.07349 136.813 Q 252.36598 137.112 252.36598 137.593 Q 252.36598 138.048 252.07349 138.334 Q 251.78098 138.62 251.29996 138.62 Z M 271.804 142.13 Q 270.504 142.13 269.75 141.402 Q 268.996 140.674 268.996 139.4 L 268.996 135.11 Q 268.996 133.836 269.75 133.108 Q 270.504 132.38 271.804 132.38 Q 273.078 132.38 273.832 133.1145 Q 274.586 133.849 274.586 135.11 L 273.416 135.11 Q 273.416 134.304 272.9935 133.8685 Q 272.57098 133.433 271.804 133.433 Q 271.037 133.433 270.6015 133.8685 Q 270.166 134.304 270.166 135.11 L 270.166 139.4 Q 270.166 140.206 270.6015 140.6415 Q 271.037 141.077 271.804 141.077 Q 272.57098 141.077 272.9935 140.6415 Q 273.416 140.206 273.416 139.4 L 274.586 139.4 Q 274.586 140.661 273.832 141.3955 Q 273.078 142.13 271.804 142.13 Z M 279.68997 142 L 279.68997 132.51 L 280.85995 132.51 L 280.85995 140.934 L 285.14996 140.934 L 285.14996 142 L 279.68997 142 Z M 289.56494 142 L 289.56494 140.934 L 291.50195 140.934 L 291.50195 133.576 L 289.56494 133.576 L 289.56494 132.51 L 294.63495 132.51 L 294.63495 133.576 L 292.69794 133.576 L 292.69794 140.934 L 294.63495 140.934 L 294.63495 142 L 289.56494 142 Z M 312.49997 138.62 Q 312.01898 138.62 311.72647 138.334 Q 311.434 138.048 311.434 137.593 Q 311.434 137.112 311.72647 136.813 Q 312.01898 136.514 312.49997 136.514 Q 312.981 136.514 313.27347 136.813 Q 313.56598 137.112 313.56598 137.593 Q 313.56598 138.048 313.27347 138.334 Q 312.981 138.62 312.49997 138.62 Z M 331.09293 144.34 L 331.09293 143.274 L 333.10794 143.274 Q 333.71893 143.274 334.06995 142.9295 Q 334.42093 142.585 334.42093 142 L 334.42093 141.35 L 334.44693 140.18 L 334.40793 140.18 Q 334.30392 140.817 333.79694 141.1615 Q 333.28995 141.506 332.52295 141.506 Q 331.41794 141.506 330.78094 140.804 Q 330.14395 140.102 330.14395 138.88 L 330.14395 137.372 Q 330.14395 136.15 330.78094 135.435 Q 331.41794 134.72 332.52295 134.72 Q 333.28995 134.72 333.79694 135.084 Q 334.30392 135.448 334.40793 136.085 L 334.43393 136.085 L 334.43393 134.85 L 335.59094 134.85 L 335.59094 142 Q 335.59094 143.079 334.92145 143.7095 Q 334.25195 144.34 333.09494 144.34 L 331.09293 144.34 Z M 332.87393 140.531 Q 333.60193 140.531 334.01794 140.076 Q 334.43393 139.621 334.43393 138.815 L 334.43393 137.45 Q 334.43393 136.644 334.01794 136.189 Q 333.60193 135.734 332.87393 135.734 Q 332.13293 135.734 331.72345 136.163 Q 331.31393 136.592 331.31393 137.32 L 331.31393 138.945 Q 331.31393 139.673 331.72345 140.102 Q 332.13293 140.531 332.87393 140.531 Z M 340.40897 142 L 340.40897 132.51 L 343.33395 132.51 Q 344.179 132.51 344.81595 132.85449 Q 345.45294 133.199 345.80396 133.81 Q 346.15494 134.421 346.15494 135.24 Q 346.15494 136.202 345.66095 136.891 Q 345.16696 137.58 344.34796 137.853 L 346.28494 142 L 344.99796 142 L 343.13895 137.97 L 341.56595 137.97 L 341.56595 142 L 340.40897 142 Z M 341.56595 136.91699 L 343.33395 136.91699 Q 344.06195 136.91699 344.50394 136.4555 Q 344.94595 135.994 344.94595 135.24 Q 344.94595 134.473 344.50394 134.018 Q 344.06195 133.563 343.33395 133.563 L 341.56595 133.563 L 341.56595 136.91699 Z M 350.59598 142 L 350.59598 132.51 L 353.65097 132.51 Q 354.97696 132.51 355.76346 133.27051 Q 356.54996 134.031 356.54996 135.305 Q 356.54996 136.579 355.76346 137.3395 Q 354.97696 138.1 353.65097 138.1 L 351.76596 138.1 L 351.76596 142 L 350.59598 142 Z M 351.76596 137.047 L 353.65097 137.047 Q 354.41794 137.047 354.87946 136.5725 Q 355.34097 136.098 355.34097 135.305 Q 355.34097 134.499 354.87946 134.031 Q 354.41794 133.563 353.65097 133.563 L 351.76596 133.563 L 351.76596 137.047 Z M 363.60397 142.13 Q 362.304 142.13 361.55 141.402 Q 360.796 140.674 360.796 139.4 L 360.796 135.11 Q 360.796 133.836 361.55 133.108 Q 362.304 132.38 363.60397 132.38 Q 364.878 132.38 365.632 133.1145 Q 366.386 133.849 366.386 135.11 L 365.216 135.11 Q 365.216 134.304 364.7935 133.8685 Q 364.37097 133.433 363.60397 133.433 Q 362.837 133.433 362.40152 133.8685 Q 361.96597 134.304 361.96597 135.11 L 361.96597 139.4 Q 361.96597 140.206 362.40152 140.6415 Q 362.837 141.077 363.60397 141.077 Q 364.37097 141.077 364.7935 140.6415 Q 365.216 140.206 365.216 139.4 L 366.386 139.4 Q 366.386 140.661 365.632 141.3955 Q 364.878 142.13 363.60397 142.13 Z M 383.89996 138.62 Q 383.41904 138.62 383.1265 138.334 Q 382.83405 138.048 382.83405 137.593 Q 382.83405 137.112 383.1265 136.813 Q 383.41904 136.514 383.89996 136.514 Q 384.381 136.514 384.6735 136.813 Q 384.966 137.112 384.966 137.593 Q 384.966 138.048 384.6735 138.334 Q 384.381 138.62 383.89996 138.62 Z M 401.60904 142 L 401.60904 132.51 L 404.53403 132.51 Q 405.37903 132.51 406.01605 132.85449 Q 406.653 133.199 407.00403 133.81 Q 407.355 134.421 407.355 135.24 Q 407.355 136.202 406.861 136.891 Q 406.36703 137.58 405.54803 137.853 L 407.48502 142 L 406.19803 142 L 404.33902 137.97 L 402.76602 137.97 L 402.76602 142 L 401.60904 142 Z M 402.76602 136.91699 L 404.53403 136.91699 Q 405.262 136.91699 405.704 136.4555 Q 406.146 135.994 406.146 135.24 Q 406.146 134.473 405.704 134.018 Q 405.262 133.563 404.53403 133.563 L 402.76602 133.563 L 402.76602 136.91699 Z M 414.50003 142.13 Q 413.17404 142.13 412.47205 141.3955 Q 411.77005 140.661 411.77005 139.4 L 411.77005 132.51 L 412.94003 132.51 L 412.94003 139.4 Q 412.94003 140.18 413.32355 140.635 Q 413.70703 141.09 414.50003 141.09 Q 415.28006 141.09 415.67 140.635 Q 416.06006 140.18 416.06006 139.4 L 416.06006 132.51 L 417.23004 132.51 L 417.23004 139.4 Q 417.23004 140.674 416.53452 141.402 Q 415.83908 142.13 414.50003 142.13 Z M 424.75204 142.13 Q 423.37408 142.13 422.55502 141.402 Q 421.73605 140.674 421.73605 139.4 L 422.906 139.4 Q 422.906 140.193 423.41306 140.6415 Q 423.92 141.09 424.75204 141.09 Q 425.55804 141.09 426.03906 140.622 Q 426.52005 140.154 426.52005 139.4 Q 426.52005 138.828 426.2145 138.4055 Q 425.90906 137.983 425.33704 137.827 L 423.89404 137.424 Q 422.99704 137.164 422.48355 136.4945 Q 421.97003 135.825 421.97003 134.915 Q 421.97003 134.161 422.30804 133.589 Q 422.64606 133.017 423.25705 132.6985 Q 423.86804 132.38 424.66104 132.38 Q 425.46704 132.38 426.0845 132.6985 Q 426.70206 133.017 427.05307 133.5825 Q 427.40405 134.148 427.40405 134.889 L 426.234 134.889 Q 426.234 134.239 425.79205 133.8295 Q 425.35 133.42 424.66104 133.42 Q 423.97205 133.42 423.54306 133.8295 Q 423.11404 134.239 423.11404 134.889 Q 423.11404 135.409 423.39355 135.7795 Q 423.67303 136.15 424.18005 136.293 L 425.66205 136.709 Q 426.61105 136.969 427.13754 137.6905 Q 427.66406 138.412 427.66406 139.4 Q 427.66406 140.648 426.87106 141.389 Q 426.07803 142.13 424.75204 142.13 Z M 434.31506 142 L 434.31506 133.576 L 431.71503 133.576 L 431.71503 132.51 L 438.08505 132.51 L 438.08505 133.576 L 435.48505 133.576 L 435.48505 142 L 434.31506 142 Z"/>
    </g>
    <g>
        <path fill="#d6d6cf" stroke="none" d="M 89.4 200.5 Q 84.35 200.5 81.3 197.675 Q 78.25 194.84999 78.25 189.9 L 78.25 182.55 Q 78.25 177.65 81.3 174.825 Q 84.35 172 89.4 172 Q 94.25001 172 97.225 174.575 Q 100.2 177.15 100.350006 181.6 L 95.45 181.6 Q 95.3 179.09999 93.67501 177.725 Q 92.05 176.35 89.4 176.35 Q 86.55 176.35 84.875 177.975 Q 83.2 179.60002 83.2 182.55 L 83.2 189.9 Q 83.2 192.9 84.875 194.5 Q 86.55 196.10002 89.4 196.10002 Q 92.09999 196.10002 93.7 194.75 Q 95.3 193.4 95.45 190.9 L 100.350006 190.9 Q 100.2 195.35002 97.225 197.925 Q 94.25001 200.5 89.4 200.5 Z M 114.95 200.5 Q 110.700005 200.5 108.225006 198.125 Q 105.74999 195.74998 105.74999 191.9 Q 105.74999 188.05 108.325 185.7 Q 110.9 183.35 115.1 183.35 L 123.15 183.35 L 123.15 181.25 Q 123.15 176.19998 117.549995 176.19998 Q 115.05 176.19998 113.525 177.125 Q 112 178.05 111.90001 179.7 L 107 179.7 Q 107.25 176.35 110.05001 174.175 Q 112.85 172 117.549995 172 Q 122.6 172 125.35 174.4 Q 128.1 176.8 128.1 181.15001 L 128.1 200 L 123.25 200 L 123.25 194.95 L 123.15 194.95 Q 122.8 197.5 120.625 199 Q 118.450005 200.5 114.95 200.5 Z M 116.25 196.35 Q 119.399994 196.35 121.275 194.825 Q 123.15 193.3 123.15 190.65 L 123.15 187 L 115.55 187 Q 113.4 187 112.075 188.275 Q 110.75 189.55 110.75 191.65 Q 110.75 193.8 112.2 195.075 Q 113.65 196.35 116.25 196.35 Z M 144.9 200.4 Q 140.2 200.4 137.6 198.3 Q 135 196.2 135 192.4 L 139.9 192.4 Q 139.9 194.2 141.225 195.225 Q 142.55 196.25002 144.9 196.25002 L 147.1 196.25002 Q 149.55 196.25002 150.875 195.2 Q 152.2 194.15 152.2 192.25 Q 152.2 188.90001 148.9 188.50002 L 141.5 187.45 Q 138.55 187 136.95 185.02501 Q 135.35 183.04999 135.35 179.89998 Q 135.35 176.19998 137.85 174.15 Q 140.35 172.10002 144.85 172.10002 L 147.05 172.10002 Q 151.25 172.10002 153.85 174.1 Q 156.45 176.1 156.6 179.4 L 151.6 179.4 Q 151.5 178 150.3 177.075 Q 149.1 176.15 147.05 176.15 L 144.85 176.15 Q 142.6 176.15 141.375 177.15 Q 140.15 178.15 140.15 179.85002 Q 140.15 182.6 142.9 182.95 L 149.85 183.94998 Q 157 184.9 157 192.25 Q 157 196.14998 154.425 198.275 Q 151.85 200.4 147.1 200.4 L 144.9 200.4 Z M 177.25 200 Q 173.7 200 171.625 197.95 Q 169.55 195.89998 169.55 192.5 L 169.55 177 L 161.7 177 L 161.7 172.50002 L 169.55 172.50002 L 169.55 164.75 L 174.5 164.75 L 174.5 172.50002 L 185.65 172.50002 L 185.65 177 L 174.5 177 L 174.5 192.45001 Q 174.5 193.8 175.275 194.65 Q 176.05002 195.49998 177.35 195.49998 L 185.4 195.49998 L 185.4 200 L 177.25 200 Z M 198.25 208 L 200.95001 192.70001 L 206.79999 192.70001 L 203.24998 208 L 198.25 208 Z M 261.85 200.5 Q 258.75 200.5 256.75 198.95 Q 254.75 197.40001 254.3 194.65 L 254.3 194.65 L 254.3 200 L 249.4 200 L 249.4 163.5 L 254.35 163.5 L 254.35 171.4 L 254.25 177.8 L 254.25 177.8 Q 254.7 175.1 256.725 173.55 Q 258.75 172 261.85 172 Q 265.95 172 268.4 174.775 Q 270.85 177.55 270.85 182.3 L 270.85 190.2 Q 270.85 194.95 268.4 197.725 Q 265.95 200.5 261.85 200.5 Z M 260.1 196.2 Q 262.85 196.2 264.375 194.775 Q 265.9 193.35 265.9 190.15 L 265.9 182.35 Q 265.9 179.15 264.375 177.725 Q 262.85 176.30002 260.1 176.30002 Q 257.45 176.30002 255.9 177.95 Q 254.35 179.60002 254.35 182.6 L 254.35 189.9 Q 254.35 192.9 255.9 194.55 Q 257.45 196.2 260.1 196.2 Z M 288.45 200.5 Q 283.6 200.5 280.7 197.65001 Q 277.8 194.8 277.8 189.9 L 277.8 172.50002 L 282.75 172.50002 L 282.75 189.9 Q 282.75 192.8 284.275 194.475 Q 285.8 196.14998 288.45 196.14998 Q 291.15 196.14998 292.7 194.475 Q 294.25 192.8 294.25 189.9 L 294.25 172.50002 L 299.2 172.50002 L 299.2 189.9 Q 299.2 194.8 296.275 197.65001 Q 293.35 200.5 288.45 200.5 Z M 319.75 200 Q 316.2 200 314.125 197.95 Q 312.05 195.89998 312.05 192.5 L 312.05 177 L 304.2 177 L 304.2 172.50002 L 312.05 172.50002 L 312.05 164.75 L 317 164.75 L 317 172.50002 L 328.15 172.50002 L 328.15 177 L 317 177 L 317 192.45001 Q 317 193.8 317.775 194.65 Q 318.55 195.49998 319.85 195.49998 L 327.9 195.49998 L 327.9 200 L 319.75 200 Z M 369.54996 200 L 369.54996 180.75002 L 361.65002 180.75002 L 361.65002 176.25 L 369.54996 176.25 L 369.54996 170.7 Q 369.54996 167.4 371.7 165.45 Q 373.84998 163.5 377.55 163.5 L 385.6 163.5 L 385.6 167.95 L 377.55 167.95 Q 374.49997 167.95 374.49997 170.75 L 374.49997 176.25 L 385.6 176.25 L 385.6 180.75002 L 374.49997 180.75002 L 374.49997 200 L 369.54996 200 Z M 402.5 200.4 Q 397.44998 200.4 394.47498 197.5 Q 391.49997 194.59999 391.49997 189.40001 L 391.49997 183.1 Q 391.49997 177.9 394.47498 175 Q 397.44998 172.10002 402.5 172.10002 Q 407.55 172.10002 410.525 175 Q 413.5 177.9 413.5 183.1 L 413.5 189.40001 Q 413.5 194.59999 410.525 197.5 Q 407.55 200.4 402.5 200.4 Z M 402.5 196.05 Q 405.3 196.05 406.925 194.475 Q 408.55 192.9 408.55 189.85 L 408.55 182.65 Q 408.55 179.60002 406.925 178.025 Q 405.3 176.45001 402.5 176.45001 Q 399.7 176.45001 398.075 178.025 Q 396.44998 179.60002 396.44998 182.65 L 396.44998 189.85 Q 396.44998 192.9 398.075 194.475 Q 399.7 196.05 402.5 196.05 Z M 421.4 200 L 421.4 172.50002 L 426.30002 172.50002 L 426.30002 177.8 L 426.35 177.8 Q 426.75 175.1 428.675 173.55 Q 430.59998 172 433.8 172 Q 438.05 172 440.4 174.625 Q 442.75 177.25 442.75 182 L 442.75 184.4 L 437.8 184.4 L 437.8 182.05 Q 437.8 176.30002 432.15 176.30002 Q 429.3 176.30002 427.82504 177.95 Q 426.35 179.60002 426.35 182.65 L 426.35 200 L 421.4 200 Z"/>
    </g>
    <g>
        <path fill="#a8d68a" stroke="none" d="M 89.2 246.5 Q 83.8 246.5 80.6 243.67502 Q 77.4 240.85 77.4 235.89998 L 82.35 235.89998 Q 82.35 238.79999 84.2 240.45001 Q 86.05001 242.1 89.2 242.1 Q 92.2 242.1 93.975 240.425 Q 95.75 238.75 95.75 235.95 Q 95.75 233.85 94.6 232.27498 Q 93.45 230.7 91.35 230.15 L 85.94999 228.7 Q 82.4 227.7 80.325 225.075 Q 78.25 222.45 78.25 218.84999 Q 78.25 215.9 79.575 213.675 Q 80.9 211.45 83.3 210.225 Q 85.7 209 88.85 209 Q 92.05 209 94.475 210.225 Q 96.9 211.45 98.25001 213.65001 Q 99.6 215.85 99.6 218.75 L 94.700005 218.75 Q 94.700005 216.35 93.075 214.85 Q 91.45 213.35 88.85 213.35 Q 86.25001 213.35 84.675 214.85 Q 83.1 216.35 83.1 218.75 Q 83.1 220.7 84.15 222.025 Q 85.2 223.35 87.1 223.9 L 92.65 225.4 Q 96.4 226.4 98.50001 229.225 Q 100.600006 232.05002 100.600006 235.95 Q 100.600006 239.15 99.2 241.52501 Q 97.80001 243.89998 95.225 245.2 Q 92.65 246.5 89.2 246.5 Z M 108.3 246 L 103.84999 218.5 L 108.05 218.5 L 110.75 237.25 Q 110.9 238.5 111.05 239.94998 Q 111.2 241.4 111.25 242.3 Q 111.35 241.4 111.5 239.94998 Q 111.649994 238.5 111.84999 237.25 L 115.15 218.5 L 119.84999 218.5 L 123.15 237.25 Q 123.35 238.5 123.524994 239.925 Q 123.7 241.35 123.8 242.3 Q 123.90001 241.35 124.05 239.925 Q 124.2 238.5 124.350006 237.25 L 127.15 218.5 L 131.15 218.5 L 126.50001 246 L 121.2 246 L 118.15 227.49998 Q 117.94999 226.15 117.775 224.5 Q 117.6 222.85 117.49999 221.9 Q 117.45 222.85 117.225 224.5 Q 117 226.15 116.8 227.49998 L 113.65 246 L 108.3 246 Z M 143.45 246.5 Q 139.2 246.5 136.725 244.125 Q 134.25 241.75 134.25 237.9 Q 134.25 234.05 136.825 231.69998 Q 139.4 229.35 143.6 229.35 L 151.65 229.35 L 151.65 227.24998 Q 151.65 222.2 146.05 222.2 Q 143.55 222.2 142.025 223.12498 Q 140.5 224.05002 140.4 225.7 L 135.5 225.7 Q 135.75 222.35 138.55 220.17502 Q 141.35 218 146.05 218 Q 151.1 218 153.85 220.39998 Q 156.6 222.79999 156.6 227.15 L 156.6 246 L 151.75 246 L 151.75 240.95001 L 151.65 240.95001 Q 151.3 243.49998 149.125 245 Q 146.95 246.5 143.45 246.5 Z M 144.75 242.34999 Q 147.9 242.34999 149.775 240.825 Q 151.65 239.29999 151.65 236.64998 L 151.65 233 L 144.05 233 Q 141.9 233 140.575 234.275 Q 139.25 235.55 139.25 237.65001 Q 139.25 239.80002 140.7 241.075 Q 142.15 242.34999 144.75 242.34999 Z M 164.9 246 L 164.9 218.5 L 169.8 218.5 L 169.8 223.80002 L 169.85 223.80002 Q 170.25 221.1 172.17502 219.55 Q 174.1 218 177.3 218 Q 181.55 218 183.9 220.625 Q 186.25 223.25 186.25 228 L 186.25 230.4 L 181.3 230.4 L 181.3 228.05 Q 181.3 222.3 175.65 222.3 Q 172.8 222.3 171.325 223.94998 Q 169.85 225.6 169.85 228.64998 L 169.85 246 L 164.9 246 Z M 190.85 246 L 190.85 218.5 L 195.05 218.5 L 195.05 222.25 L 195.2 222.25 Q 195.4 220.35 196.625 219.17499 Q 197.85 218 199.75 218 Q 201.6 218 202.84999 219.09999 Q 204.10002 220.2 204.64998 222.05 L 204.64998 222.05 Q 204.95 220.14998 206.2 219.075 Q 207.44998 218 209.35 218 Q 211.95 218 213.55 219.975 Q 215.15 221.95 215.15 225.1 L 215.15 246 L 210.65 246 L 210.65 225.15 Q 210.65 223.6 209.875 222.675 Q 209.1 221.75 207.80002 221.75 Q 206.5 221.75 205.75 222.65 Q 205 223.54999 205 225.15 L 205 246 L 201 246 L 201 225.15 Q 201 223.6 200.25 222.675 Q 199.5 221.75 198.2 221.75 Q 196.90001 221.75 196.125 222.65 Q 195.35002 223.54999 195.35002 225.15 L 195.35002 246 L 190.85 246 Z M 231.5 246.5 Q 229.6 246.5 228.42502 245.35 Q 227.24998 244.2 227.24998 242.4 Q 227.24998 240.5 228.42502 239.29999 Q 229.6 238.1 231.5 238.1 Q 233.4 238.1 234.575 239.29999 Q 235.74998 240.5 235.74998 242.4 Q 235.74998 244.2 234.575 245.35 Q 233.4 246.5 231.5 246.5 Z"/>
    </g>
    <g>
        <path fill="#5e7c4e" stroke="none" d="M 75.104 292 L 75.104 285.4 L 76.184 285.4 L 76.184 286.66 L 76.196 286.66 Q 76.28 286 76.736 285.64 Q 77.192 285.28 77.948 285.28 Q 78.944 285.28 79.532 285.892 Q 80.12 286.504 80.12 287.56 L 80.12 292 L 79.04 292 L 79.04 287.752 Q 79.04 286.996 78.662 286.594 Q 78.284 286.192 77.636 286.192 Q 76.964 286.192 76.574 286.612 Q 76.184 287.032 76.184 287.8 L 76.184 292 L 75.104 292 Z M 84.799995 292.096 Q 83.612 292.096 82.909996 291.4 Q 82.208 290.704 82.208 289.456 L 82.208 287.944 Q 82.208 286.684 82.904 285.994 Q 83.6 285.304 84.799995 285.304 Q 86 285.304 86.696 285.994 Q 87.392 286.684 87.392 287.944 L 87.392 289.456 Q 87.392 290.704 86.689995 291.4 Q 85.98801 292.096 84.799995 292.096 Z M 84.799995 291.136 Q 85.507996 291.136 85.909996 290.74 Q 86.312 290.344 86.312 289.576 L 86.312 287.824 Q 86.312 287.056 85.909996 286.66 Q 85.507996 286.264 84.799995 286.264 Q 84.104 286.264 83.696 286.66 Q 83.287994 287.056 83.287994 287.824 L 83.287994 289.576 Q 83.287994 290.344 83.696 290.74 Q 84.104 291.136 84.799995 291.136 Z M 91.616 292.12 Q 90.63201 292.12 90.038 291.46 Q 89.444 290.8 89.444 289.672 L 89.444 287.74 Q 89.444 286.6 90.032 285.94 Q 90.62 285.28 91.616 285.28 Q 92.36 285.28 92.846 285.652 Q 93.332 286.024 93.428 286.66 L 93.44 286.66 L 93.416 285.16 L 93.416 283.24 L 94.496 283.24 L 94.496 292 L 93.416 292 L 93.416 290.74 L 93.404 290.74 Q 93.32 291.388 92.840004 291.754 Q 92.36 292.12 91.616 292.12 Z M 91.976 291.184 Q 92.64801 291.184 93.032 290.764 Q 93.416 290.344 93.416 289.6 L 93.416 287.8 Q 93.416 287.056 93.032 286.636 Q 92.64801 286.216 91.976 286.216 Q 91.292 286.216 90.908005 286.57 Q 90.52401 286.924 90.52401 287.74 L 90.52401 289.66 Q 90.52401 290.464 90.908005 290.824 Q 91.292 291.184 91.976 291.184 Z M 99.2 292.12 Q 98.035995 292.12 97.32199 291.418 Q 96.608 290.716 96.608 289.48 L 96.608 287.92 Q 96.608 286.684 97.32199 285.982 Q 98.035995 285.28 99.2 285.28 Q 99.97999 285.28 100.56199 285.592 Q 101.14399 285.904 101.46801 286.468 Q 101.792 287.032 101.792 287.8 L 101.792 288.976 L 97.664 288.976 L 97.664 289.6 Q 97.664 290.332 98.08401 290.758 Q 98.504 291.184 99.2 291.184 Q 99.799995 291.184 100.19 290.95 Q 100.58 290.716 100.664 290.32 L 101.743996 290.32 Q 101.636 291.148 100.94 291.634 Q 100.243996 292.12 99.2 292.12 Z M 97.664 288.136 L 100.736 288.136 L 100.736 287.8 Q 100.736 287.02 100.334 286.594 Q 99.932 286.168 99.2 286.168 Q 98.468 286.168 98.066 286.594 Q 97.664 287.02 97.664 287.8 L 97.664 288.136 Z M 113.6 288.88 Q 113.15599 288.88 112.88601 288.616 Q 112.616 288.352 112.616 287.932 Q 112.616 287.488 112.88601 287.212 Q 113.15599 286.936 113.6 286.936 Q 114.044 286.936 114.314 287.212 Q 114.584 287.488 114.584 287.932 Q 114.584 288.352 114.314 288.616 Q 114.044 288.88 113.6 288.88 Z M 128.09601 292.12 Q 126.896 292.12 126.176 291.448 Q 125.45601 290.776 125.45601 289.6 L 125.45601 287.8 Q 125.45601 286.624 126.176 285.952 Q 126.896 285.28 128.09601 285.28 Q 129.23601 285.28 129.938 285.892 Q 130.64 286.504 130.676 287.56 L 129.59601 287.56 Q 129.56 286.924 129.164 286.582 Q 128.768 286.24 128.09601 286.24 Q 127.38799 286.24 126.962006 286.642 Q 126.53601 287.044 126.53601 287.788 L 126.53601 289.6 Q 126.53601 290.344 126.962006 290.752 Q 127.38799 291.16 128.09601 291.16 Q 128.768 291.16 129.164 290.812 Q 129.56 290.464 129.59601 289.84 L 130.676 289.84 Q 130.64 290.896 129.938 291.508 Q 129.23601 292.12 128.09601 292.12 Z M 132.70401 292 L 132.70401 283.24 L 133.78401 283.24 L 133.78401 286.66 L 133.796 286.66 Q 133.88 286 134.336 285.64 Q 134.792 285.28 135.548 285.28 Q 136.544 285.28 137.132 285.892 Q 137.72 286.504 137.72 287.56 L 137.72 292 L 136.64 292 L 136.64 287.74 Q 136.64 286.996 136.26201 286.594 Q 135.884 286.192 135.23601 286.192 Q 134.56401 286.192 134.17401 286.612 Q 133.78401 287.032 133.78401 287.8 L 133.78401 292 L 132.70401 292 Z M 142.388 292.12 Q 141.248 292.12 140.56401 291.442 Q 139.88 290.764 139.88 289.6 L 139.88 285.4 L 140.96 285.4 L 140.96 289.6 Q 140.96 290.32 141.34401 290.746 Q 141.728 291.172 142.388 291.172 Q 143.06 291.172 143.45 290.746 Q 143.84 290.32 143.84 289.6 L 143.84 285.4 L 144.92 285.4 L 144.92 289.6 Q 144.92 290.764 144.224 291.442 Q 143.528 292.12 142.388 292.12 Z M 147.104 292 L 147.104 285.4 L 148.184 285.4 L 148.184 286.66 L 148.196 286.66 Q 148.28 286 148.736 285.64 Q 149.192 285.28 149.948 285.28 Q 150.944 285.28 151.532 285.892 Q 152.12 286.504 152.12 287.56 L 152.12 292 L 151.04 292 L 151.04 287.752 Q 151.04 286.996 150.662 286.594 Q 150.284 286.192 149.636 286.192 Q 148.964 286.192 148.574 286.612 Q 148.184 287.032 148.184 287.8 L 148.184 292 L 147.104 292 Z M 154.364 292 L 154.364 283.24 L 155.444 283.24 L 155.444 288.124 L 156.704 288.124 L 158.552 285.4 L 159.788 285.4 L 157.664 288.544 L 159.90799 292 L 158.648 292 L 156.728 289.06 L 155.444 289.06 L 155.444 292 L 154.364 292 Z M 171.2 288.88 Q 170.756 288.88 170.486 288.616 Q 170.21599 288.352 170.21599 287.932 Q 170.21599 287.488 170.486 287.212 Q 170.756 286.936 171.2 286.936 Q 171.644 286.936 171.914 287.212 Q 172.18398 287.488 172.18398 287.932 Q 172.18398 288.352 171.914 288.616 Q 171.644 288.88 171.2 288.88 Z M 183.45198 292 L 182.37198 285.4 L 183.30798 285.4 L 183.97997 290.056 Q 184.01599 290.32 184.05197 290.638 Q 184.08798 290.956 184.09999 291.16 Q 184.124 290.956 184.15399 290.638 Q 184.18399 290.32 184.23198 290.056 L 185.05998 285.4 L 186.13997 285.4 L 186.96799 290.056 Q 187.01599 290.32 187.058 290.638 Q 187.09999 290.956 187.11198 291.16 Q 187.13599 290.956 187.17198 290.638 Q 187.208 290.32 187.24399 290.056 L 187.93999 285.4 L 188.828 285.4 L 187.69998 292 L 186.51198 292 L 185.75598 287.44 Q 185.70798 287.104 185.66599 286.726 Q 185.62398 286.348 185.6 286.144 Q 185.58798 286.348 185.53998 286.726 Q 185.49199 287.104 185.43198 287.44 L 184.63998 292 L 183.45198 292 Z M 192.22398 292.12 Q 191.20398 292.12 190.60397 291.55 Q 190.00398 290.98 190.00398 290.056 Q 190.00398 289.444 190.27998 288.988 Q 190.55597 288.532 191.04799 288.274 Q 191.53998 288.016 192.17598 288.016 L 194.216 288.016 L 194.216 287.5 Q 194.216 286.216 192.812 286.216 Q 192.18799 286.216 191.80399 286.444 Q 191.41998 286.672 191.39598 287.08 L 190.31596 287.08 Q 190.37598 286.3 191.04199 285.79 Q 191.70798 285.28 192.812 285.28 Q 194.01198 285.28 194.65398 285.856 Q 195.29597 286.432 195.29597 287.464 L 195.29597 292 L 194.22798 292 L 194.22798 290.8 L 194.20398 290.8 Q 194.10799 291.412 193.59196 291.766 Q 193.076 292.12 192.22398 292.12 Z M 192.48798 291.208 Q 193.27998 291.208 193.74799 290.824 Q 194.216 290.44 194.216 289.78 L 194.216 288.856 L 192.29597 288.856 Q 191.76797 288.856 191.43799 289.174 Q 191.10799 289.492 191.10799 290.02 Q 191.10799 290.572 191.474 290.89 Q 191.84 291.208 192.48798 291.208 Z M 200.95998 292 Q 200.08398 292 199.56198 291.49 Q 199.03998 290.98 199.03998 290.14 L 199.03998 284.224 L 196.75998 284.224 L 196.75998 283.24 L 200.11996 283.24 L 200.11996 290.14 Q 200.11996 290.548 200.34798 290.782 Q 200.57597 291.016 200.95998 291.016 L 202.99998 291.016 L 202.99998 292 L 200.95998 292 Z M 208.15997 292 Q 207.28398 292 206.76198 291.49 Q 206.23997 290.98 206.23997 290.14 L 206.23997 284.224 L 203.95998 284.224 L 203.95998 283.24 L 207.31998 283.24 L 207.31998 290.14 Q 207.31998 290.548 207.54796 290.782 Q 207.77597 291.016 208.15997 291.016 L 210.19998 291.016 L 210.19998 292 L 208.15997 292 Z M 214.39998 292.12 Q 213.23598 292.12 212.52196 291.418 Q 211.80797 290.716 211.80797 289.48 L 211.80797 287.92 Q 211.80797 286.684 212.52196 285.982 Q 213.23598 285.28 214.39998 285.28 Q 215.17998 285.28 215.76198 285.592 Q 216.34398 285.904 216.66797 286.468 Q 216.99197 287.032 216.99197 287.8 L 216.99197 288.976 L 212.86395 288.976 L 212.86395 289.6 Q 212.86395 290.332 213.28397 290.758 Q 213.704 291.184 214.39998 291.184 Q 214.99995 291.184 215.38997 290.95 Q 215.77997 290.716 215.86397 290.32 L 216.94397 290.32 Q 216.83597 291.148 216.13995 291.634 Q 215.44397 292.12 214.39998 292.12 Z M 212.86395 288.136 L 215.93597 288.136 L 215.93597 287.8 Q 215.93597 287.02 215.53395 286.594 Q 215.13197 286.168 214.39998 286.168 Q 213.66797 286.168 213.26598 286.594 Q 212.86395 287.02 212.86395 287.8 L 212.86395 288.136 Z M 222.25996 292 Q 221.44397 292 220.95197 291.526 Q 220.45998 291.052 220.45998 290.26 L 220.45998 286.384 L 218.56398 286.384 L 218.56398 285.4 L 220.45998 285.4 L 220.45998 283.54 L 221.53996 283.54 L 221.53996 285.4 L 224.23999 285.4 L 224.23999 286.384 L 221.53996 286.384 L 221.53996 290.26 Q 221.53996 290.596 221.73799 290.806 Q 221.93596 291.016 222.25996 291.016 L 224.17996 291.016 L 224.17996 292 L 222.25996 292 Z M 235.99997 288.88 Q 235.55597 288.88 235.28598 288.616 Q 235.01596 288.352 235.01596 287.932 Q 235.01596 287.488 235.28598 287.212 Q 235.55597 286.936 235.99997 286.936 Q 236.44397 286.936 236.71396 287.212 Q 236.98398 287.488 236.98398 287.932 Q 236.98398 288.352 236.71396 288.616 Q 236.44397 288.88 235.99997 288.88 Z M 250.78395 292.12 Q 250.03998 292.12 249.55997 291.754 Q 249.07996 291.388 248.99596 290.74 L 248.98396 290.74 L 248.98396 292 L 247.90398 292 L 247.90398 283.24 L 248.98396 283.24 L 248.98396 285.16 L 248.95996 286.66 L 248.97195 286.66 Q 249.06798 286.024 249.55396 285.652 Q 250.03998 285.28 250.78395 285.28 Q 251.77995 285.28 252.36795 285.94 Q 252.95595 286.6 252.95595 287.74 L 252.95595 289.672 Q 252.95595 290.8 252.36795 291.46 Q 251.77995 292.12 250.78395 292.12 Z M 250.42395 291.184 Q 251.10796 291.184 251.49196 290.824 Q 251.87596 290.464 251.87596 289.66 L 251.87596 287.74 Q 251.87596 286.924 251.49196 286.57 Q 251.10796 286.216 250.42395 286.216 Q 249.76396 286.216 249.37396 286.636 Q 248.98396 287.056 248.98396 287.8 L 248.98396 289.6 Q 248.98396 290.344 249.37396 290.764 Q 249.76396 291.184 250.42395 291.184 Z M 257.02396 292.12 Q 256.00397 292.12 255.40398 291.55 Q 254.80396 290.98 254.80396 290.056 Q 254.80396 289.444 255.07996 288.988 Q 255.35597 288.532 255.84796 288.274 Q 256.33997 288.016 256.97595 288.016 L 259.01596 288.016 L 259.01596 287.5 Q 259.01596 286.216 257.61197 286.216 Q 256.98795 286.216 256.60394 286.444 Q 256.21994 286.672 256.19595 287.08 L 255.11597 287.08 Q 255.17595 286.3 255.84195 285.79 Q 256.50797 285.28 257.61197 285.28 Q 258.81195 285.28 259.45395 285.856 Q 260.09595 286.432 260.09595 287.464 L 260.09595 292 L 259.02795 292 L 259.02795 290.8 L 259.00397 290.8 Q 258.90796 291.412 258.39197 291.766 Q 257.87595 292.12 257.02396 292.12 Z M 257.28796 291.208 Q 258.07996 291.208 258.54794 290.824 Q 259.01596 290.44 259.01596 289.78 L 259.01596 288.856 L 257.09595 288.856 Q 256.56796 288.856 256.23795 289.174 Q 255.90796 289.492 255.90796 290.02 Q 255.90796 290.572 256.27396 290.89 Q 256.63995 291.208 257.28796 291.208 Z M 265.45996 292 Q 264.64395 292 264.15195 291.526 Q 263.65994 291.052 263.65994 290.26 L 263.65994 286.384 L 261.76395 286.384 L 261.76395 285.4 L 263.65994 285.4 L 263.65994 283.54 L 264.73996 283.54 L 264.73996 285.4 L 267.43994 285.4 L 267.43994 286.384 L 264.73996 286.384 L 264.73996 290.26 Q 264.73996 290.596 264.93796 290.806 Q 265.13596 291.016 265.45996 291.016 L 267.37994 291.016 L 267.37994 292 L 265.45996 292 Z M 272.09598 292.12 Q 270.89597 292.12 270.17596 291.448 Q 269.45596 290.776 269.45596 289.6 L 269.45596 287.8 Q 269.45596 286.624 270.17596 285.952 Q 270.89597 285.28 272.09598 285.28 Q 273.23596 285.28 273.93796 285.892 Q 274.63995 286.504 274.67596 287.56 L 273.59598 287.56 Q 273.55997 286.924 273.16397 286.582 Q 272.76797 286.24 272.09598 286.24 Q 271.38797 286.24 270.96198 286.642 Q 270.53595 287.044 270.53595 287.788 L 270.53595 289.6 Q 270.53595 290.344 270.96198 290.752 Q 271.38797 291.16 272.09598 291.16 Q 272.76797 291.16 273.16397 290.812 Q 273.55997 290.464 273.59598 289.84 L 274.67596 289.84 Q 274.63995 290.896 273.93796 291.508 Q 273.23596 292.12 272.09598 292.12 Z M 276.70395 292 L 276.70395 283.24 L 277.78394 283.24 L 277.78394 286.66 L 277.79596 286.66 Q 277.87994 286 278.33594 285.64 Q 278.79193 285.28 279.54794 285.28 Q 280.54395 285.28 281.13196 285.892 Q 281.71994 286.504 281.71994 287.56 L 281.71994 292 L 280.63995 292 L 280.63995 287.74 Q 280.63995 286.996 280.26193 286.594 Q 279.88394 286.192 279.23593 286.192 Q 278.56393 286.192 278.17395 286.612 Q 277.78394 287.032 277.78394 287.8 L 277.78394 292 L 276.70395 292 Z M 293.59995 288.88 Q 293.15594 288.88 292.88593 288.616 Q 292.61594 288.352 292.61594 287.932 Q 292.61594 287.488 292.88593 287.212 Q 293.15594 286.936 293.59995 286.936 Q 294.04395 286.936 294.31393 287.212 Q 294.58395 287.488 294.58395 287.932 Q 294.58395 288.352 294.31393 288.616 Q 294.04395 288.88 293.59995 288.88 Z M 307.98795 292.12 Q 306.84793 292.12 306.16394 291.442 Q 305.47992 290.764 305.47992 289.6 L 305.47992 285.4 L 306.55994 285.4 L 306.55994 289.6 Q 306.55994 290.32 306.94394 290.746 Q 307.32794 291.172 307.98795 291.172 Q 308.65994 291.172 309.04993 290.746 Q 309.43994 290.32 309.43994 289.6 L 309.43994 285.4 L 310.51993 285.4 L 310.51993 289.6 Q 310.51993 290.764 309.82394 291.442 Q 309.12793 292.12 307.98795 292.12 Z M 312.70392 294.16 L 312.70392 285.4 L 313.7839 285.4 L 313.7839 286.66 L 313.79593 286.66 Q 313.8799 286.012 314.35992 285.646 Q 314.8399 285.28 315.58392 285.28 Q 316.57993 285.28 317.1679 285.934 Q 317.75592 286.588 317.75592 287.728 L 317.75592 289.66 Q 317.75592 290.8 317.1679 291.46 Q 316.57993 292.12 315.58392 292.12 Q 314.8399 292.12 314.35992 291.748 Q 313.8799 291.376 313.79593 290.74 L 313.75992 290.74 L 313.7839 292.24 L 313.7839 294.16 L 312.70392 294.16 Z M 315.2239 291.184 Q 315.90793 291.184 316.2919 290.824 Q 316.6759 290.464 316.6759 289.66 L 316.6759 287.74 Q 316.6759 286.924 316.2919 286.57 Q 315.90793 286.216 315.2239 286.216 Q 314.5639 286.216 314.17392 286.636 Q 313.7839 287.056 313.7839 287.8 L 313.7839 289.6 Q 313.7839 290.344 314.17392 290.764 Q 314.5639 291.184 315.2239 291.184 Z M 323.35992 292 Q 322.48392 292 321.9619 291.49 Q 321.43994 290.98 321.43994 290.14 L 321.43994 284.224 L 319.1599 284.224 L 319.1599 283.24 L 322.51993 283.24 L 322.51993 290.14 Q 322.51993 290.548 322.74792 290.782 Q 322.97592 291.016 323.35992 291.016 L 325.39993 291.016 L 325.39993 292 L 323.35992 292 Z M 329.59995 292.096 Q 328.41193 292.096 327.70993 291.4 Q 327.00793 290.704 327.00793 289.456 L 327.00793 287.944 Q 327.00793 286.684 327.70395 285.994 Q 328.39993 285.304 329.59995 285.304 Q 330.79993 285.304 331.49594 285.994 Q 332.19193 286.684 332.19193 287.944 L 332.19193 289.456 Q 332.19193 290.704 331.48993 291.4 Q 330.78793 292.096 329.59995 292.096 Z M 329.59995 291.136 Q 330.30795 291.136 330.70993 290.74 Q 331.11194 290.344 331.11194 289.576 L 331.11194 287.824 Q 331.11194 287.056 330.70993 286.66 Q 330.30795 286.264 329.59995 286.264 Q 328.90393 286.264 328.49594 286.66 Q 328.08795 287.056 328.08795 287.824 L 328.08795 289.576 Q 328.08795 290.344 328.49594 290.74 Q 328.90393 291.136 329.59995 291.136 Z M 336.2239 292.12 Q 335.20392 292.12 334.6039 291.55 Q 334.0039 290.98 334.0039 290.056 Q 334.0039 289.444 334.2799 288.988 Q 334.5559 288.532 335.0479 288.274 Q 335.53992 288.016 336.17593 288.016 L 338.2159 288.016 L 338.2159 287.5 Q 338.2159 286.216 336.81192 286.216 Q 336.18793 286.216 335.80392 286.444 Q 335.41992 286.672 335.39594 287.08 L 334.31592 287.08 Q 334.37592 286.3 335.04193 285.79 Q 335.70792 285.28 336.81192 285.28 Q 338.01193 285.28 338.65393 285.856 Q 339.29593 286.432 339.29593 287.464 L 339.29593 292 L 338.2279 292 L 338.2279 290.8 L 338.20392 290.8 Q 338.1079 291.412 337.59192 291.766 Q 337.07593 292.12 336.2239 292.12 Z M 336.4879 291.208 Q 337.2799 291.208 337.74792 290.824 Q 338.2159 290.44 338.2159 289.78 L 338.2159 288.856 L 336.29593 288.856 Q 335.7679 288.856 335.43793 289.174 Q 335.1079 289.492 335.1079 290.02 Q 335.1079 290.572 335.4739 290.89 Q 335.83994 291.208 336.4879 291.208 Z M 343.61594 292.12 Q 342.63193 292.12 342.03793 291.46 Q 341.44394 290.8 341.44394 289.672 L 341.44394 287.74 Q 341.44394 286.6 342.03192 285.94 Q 342.61993 285.28 343.61594 285.28 Q 344.35992 285.28 344.84598 285.652 Q 345.33197 286.024 345.42792 286.66 L 345.43994 286.66 L 345.41592 285.16 L 345.41592 283.24 L 346.49597 283.24 L 346.49597 292 L 345.41592 292 L 345.41592 290.74 L 345.40393 290.74 Q 345.31995 291.388 344.83994 291.754 Q 344.35992 292.12 343.61594 292.12 Z M 343.97592 291.184 Q 344.64792 291.184 345.03192 290.764 Q 345.41592 290.344 345.41592 289.6 L 345.41592 287.8 Q 345.41592 287.056 345.03192 286.636 Q 344.64792 286.216 343.97592 286.216 Q 343.29193 286.216 342.90793 286.57 Q 342.52393 286.924 342.52393 287.74 L 342.52393 289.66 Q 342.52393 290.464 342.90793 290.824 Q 343.29193 291.184 343.97592 291.184 Z M 358.39996 288.88 Q 357.95596 288.88 357.68594 288.616 Q 357.41592 288.352 357.41592 287.932 Q 357.41592 287.488 357.68594 287.212 Q 357.95596 286.936 358.39996 286.936 Q 358.84396 286.936 359.11392 287.212 Q 359.38397 287.488 359.38397 287.932 Q 359.38397 288.352 359.11392 288.616 Q 358.84396 288.88 358.39996 288.88 Z M 372.416 292.12 Q 371.43195 292.12 370.83798 291.46 Q 370.244 290.8 370.244 289.672 L 370.244 287.74 Q 370.244 286.6 370.83197 285.94 Q 371.41998 285.28 372.416 285.28 Q 373.15997 285.28 373.646 285.652 Q 374.132 286.024 374.22797 286.66 L 374.24002 286.66 L 374.21597 285.16 L 374.21597 283.24 L 375.296 283.24 L 375.296 292 L 374.21597 292 L 374.21597 290.74 L 374.20398 290.74 Q 374.12 291.388 373.63998 291.754 Q 373.15997 292.12 372.416 292.12 Z M 372.77597 291.184 Q 373.44797 291.184 373.83197 290.764 Q 374.21597 290.344 374.21597 289.6 L 374.21597 287.8 Q 374.21597 287.056 373.83197 286.636 Q 373.44797 286.216 372.77597 286.216 Q 372.09198 286.216 371.70798 286.57 Q 371.32397 286.924 371.32397 287.74 L 371.32397 289.66 Q 371.32397 290.464 371.70798 290.824 Q 372.09198 291.184 372.77597 291.184 Z M 380 292.096 Q 378.81195 292.096 378.11 291.4 Q 377.408 290.704 377.408 289.456 L 377.408 287.944 Q 377.408 286.684 378.104 285.994 Q 378.80002 285.304 380 285.304 Q 381.19998 285.304 381.896 285.994 Q 382.592 286.684 382.592 287.944 L 382.592 289.456 Q 382.592 290.704 381.88998 291.4 Q 381.188 292.096 380 292.096 Z M 380 291.136 Q 380.708 291.136 381.11 290.74 Q 381.512 290.344 381.512 289.576 L 381.512 287.824 Q 381.512 287.056 381.11 286.66 Q 380.708 286.264 380 286.264 Q 379.304 286.264 378.89603 286.66 Q 378.488 287.056 378.488 287.824 L 378.488 289.576 Q 378.488 290.344 378.89603 290.74 Q 379.304 291.136 380 291.136 Z M 385.052 292 L 383.97202 285.4 L 384.908 285.4 L 385.58002 290.056 Q 385.616 290.32 385.652 290.638 Q 385.688 290.956 385.7 291.16 Q 385.724 290.956 385.754 290.638 Q 385.78403 290.32 385.83203 290.056 L 386.65997 285.4 L 387.74002 285.4 L 388.568 290.056 Q 388.616 290.32 388.65802 290.638 Q 388.69998 290.956 388.712 291.16 Q 388.736 290.956 388.772 290.638 Q 388.808 290.32 388.84402 290.056 L 389.54 285.4 L 390.428 285.4 L 389.30002 292 L 388.11203 292 L 387.35602 287.44 Q 387.308 287.104 387.266 286.726 Q 387.224 286.348 387.2 286.144 Q 387.188 286.348 387.14005 286.726 Q 387.09204 287.104 387.032 287.44 L 386.24002 292 L 385.052 292 Z M 391.90402 292 L 391.90402 285.4 L 392.984 285.4 L 392.984 286.66 L 392.99603 286.66 Q 393.08002 286 393.536 285.64 Q 393.99197 285.28 394.74802 285.28 Q 395.74402 285.28 396.33203 285.892 Q 396.92 286.504 396.92 287.56 L 396.92 292 L 395.84003 292 L 395.84003 287.752 Q 395.84003 286.996 395.462 286.594 Q 395.084 286.192 394.436 286.192 Q 393.764 286.192 393.37402 286.612 Q 392.984 287.032 392.984 287.8 L 392.984 292 L 391.90402 292 Z M 402.56003 292 Q 401.68402 292 401.16205 291.49 Q 400.64005 290.98 400.64005 290.14 L 400.64005 284.224 L 398.36002 284.224 L 398.36002 283.24 L 401.72003 283.24 L 401.72003 290.14 Q 401.72003 290.548 401.94803 290.782 Q 402.17606 291.016 402.56003 291.016 L 404.60007 291.016 L 404.60007 292 L 402.56003 292 Z M 408.80005 292.096 Q 407.61206 292.096 406.91003 291.4 Q 406.208 290.704 406.208 289.456 L 406.208 287.944 Q 406.208 286.684 406.90405 285.994 Q 407.60004 285.304 408.80005 285.304 Q 410.00003 285.304 410.69604 285.994 Q 411.39203 286.684 411.39203 287.944 L 411.39203 289.456 Q 411.39203 290.704 410.69003 291.4 Q 409.98807 292.096 408.80005 292.096 Z M 408.80005 291.136 Q 409.50806 291.136 409.91003 290.74 Q 410.31204 290.344 410.31204 289.576 L 410.31204 287.824 Q 410.31204 287.056 409.91003 286.66 Q 409.50806 286.264 408.80005 286.264 Q 408.104 286.264 407.69604 286.66 Q 407.28806 287.056 407.28806 287.824 L 407.28806 289.576 Q 407.28806 290.344 407.69604 290.74 Q 408.104 291.136 408.80005 291.136 Z M 415.42407 292.12 Q 414.40402 292.12 413.80405 291.55 Q 413.20404 290.98 413.20404 290.056 Q 413.20404 289.444 413.48007 288.988 Q 413.75604 288.532 414.24805 288.274 Q 414.74008 288.016 415.37607 288.016 L 417.41602 288.016 L 417.41602 287.5 Q 417.41602 286.216 416.01205 286.216 Q 415.38806 286.216 415.00406 286.444 Q 414.62006 286.672 414.59607 287.08 L 413.51605 287.08 Q 413.57608 286.3 414.24207 285.79 Q 414.90805 285.28 416.01205 285.28 Q 417.21204 285.28 417.85406 285.856 Q 418.49606 286.432 418.49606 287.464 L 418.49606 292 L 417.42804 292 L 417.42804 290.8 L 417.40405 290.8 Q 417.30804 291.412 416.79205 291.766 Q 416.27606 292.12 415.42407 292.12 Z M 415.68805 291.208 Q 416.48004 291.208 416.94806 290.824 Q 417.41602 290.44 417.41602 289.78 L 417.41602 288.856 L 415.49606 288.856 Q 414.96805 288.856 414.6381 289.174 Q 414.308 289.492 414.308 290.02 Q 414.308 290.572 414.67404 290.89 Q 415.04007 291.208 415.68805 291.208 Z M 422.81607 292.12 Q 421.83206 292.12 421.2381 291.46 Q 420.64407 290.8 420.64407 289.672 L 420.64407 287.74 Q 420.64407 286.6 421.23206 285.94 Q 421.8201 285.28 422.81607 285.28 Q 423.56006 285.28 424.0461 285.652 Q 424.5321 286.024 424.62805 286.66 L 424.64008 286.66 L 424.61606 285.16 L 424.61606 283.24 L 425.6961 283.24 L 425.6961 292 L 424.61606 292 L 424.61606 290.74 L 424.60406 290.74 Q 424.52008 291.388 424.04007 291.754 Q 423.56006 292.12 422.81607 292.12 Z M 423.17606 291.184 Q 423.84805 291.184 424.23206 290.764 Q 424.61606 290.344 424.61606 289.6 L 424.61606 287.8 Q 424.61606 287.056 424.23206 286.636 Q 423.84805 286.216 423.17606 286.216 Q 422.49207 286.216 422.1081 286.57 Q 421.7241 286.924 421.7241 287.74 L 421.7241 289.66 Q 421.7241 290.464 422.1081 290.824 Q 422.49207 291.184 423.17606 291.184 Z M 437.6001 288.88 Q 437.1561 288.88 436.88608 288.616 Q 436.61606 288.352 436.61606 287.932 Q 436.61606 287.488 436.88608 287.212 Q 437.1561 286.936 437.6001 286.936 Q 438.0441 286.936 438.31412 287.212 Q 438.5841 287.488 438.5841 287.932 Q 438.5841 288.352 438.31412 288.616 Q 438.0441 288.88 437.6001 288.88 Z M 452.96014 292 Q 452.0841 292 451.56207 291.49 Q 451.04013 290.98 451.04013 290.14 L 451.04013 284.224 L 448.7601 284.224 L 448.7601 283.24 L 452.12012 283.24 L 452.12012 290.14 Q 452.12012 290.548 452.3481 290.782 Q 452.57608 291.016 452.96014 291.016 L 455.0001 291.016 L 455.0001 292 L 452.96014 292 Z M 458.93613 292.096 Q 457.83212 292.096 457.2261 291.598 Q 456.62012 291.1 456.62012 290.188 L 457.70013 290.188 Q 457.70013 290.644 458.02414 290.902 Q 458.34814 291.16 458.93613 291.16 L 459.46414 291.16 Q 460.06412 291.16 460.39413 290.896 Q 460.7241 290.632 460.7241 290.152 Q 460.7241 289.3 459.94415 289.192 L 458.12012 288.928 Q 457.44812 288.832 457.0761 288.37 Q 456.70413 287.908 456.70413 287.152 Q 456.70413 286.288 457.29813 285.796 Q 457.89212 285.304 458.93613 285.304 L 459.46414 285.304 Q 460.42416 285.304 461.03012 285.778 Q 461.63617 286.252 461.68417 287.02 L 460.59213 287.02 Q 460.5681 286.672 460.26212 286.444 Q 459.95612 286.216 459.46414 286.216 L 458.93613 286.216 Q 458.38412 286.216 458.07214 286.468 Q 457.7601 286.72 457.7601 287.152 Q 457.7601 287.848 458.3961 287.944 L 460.10013 288.184 Q 461.78012 288.424 461.78012 290.152 Q 461.78012 291.076 461.17413 291.586 Q 460.5681 292.096 459.46414 292.096 L 458.93613 292.096 Z"/>
    </g>
    <g>
        <path fill="#5e7c4e" stroke="none" d="M 77.216 306.12 Q 76.232 306.12 75.638 305.46 Q 75.044 304.8 75.044 303.672 L 75.044 301.74 Q 75.044 300.6 75.632 299.94 Q 76.22 299.28 77.216 299.28 Q 77.96 299.28 78.446 299.652 Q 78.932 300.024 79.028 300.66 L 79.04 300.66 L 79.016 299.16 L 79.016 297.24 L 80.096 297.24 L 80.096 306 L 79.016 306 L 79.016 304.74 L 79.004 304.74 Q 78.92 305.388 78.44 305.754 Q 77.96 306.12 77.216 306.12 Z M 77.576 305.184 Q 78.248 305.184 78.632 304.764 Q 79.016 304.344 79.016 303.6 L 79.016 301.8 Q 79.016 301.056 78.632 300.636 Q 78.248 300.216 77.576 300.216 Q 76.892 300.216 76.508 300.57 Q 76.124 300.924 76.124 301.74 L 76.124 303.66 Q 76.124 304.464 76.508 304.824 Q 76.892 305.184 77.576 305.184 Z M 82.544 306 L 82.544 299.4 L 83.624 299.4 L 83.624 300.66 L 83.647995 300.66 Q 83.731995 300.024 84.187996 299.652 Q 84.644 299.28 85.411995 299.28 Q 86.444 299.28 87.002 299.898 Q 87.56 300.516 87.56 301.656 L 87.56 302.22 L 86.479996 302.22 L 86.479996 301.656 Q 86.479996 300.216 85.076 300.216 Q 84.368 300.216 83.995995 300.624 Q 83.624 301.032 83.624 301.8 L 83.624 306 L 82.544 306 Z M 89.42 306 L 89.42 305.016 L 91.76 305.016 L 91.76 300.384 L 89.66 300.384 L 89.66 299.4 L 92.840004 299.4 L 92.840004 305.016 L 95.06 305.016 L 95.06 306 L 89.42 306 Z M 92.18 298.212 Q 91.784004 298.212 91.55601 298.008 Q 91.328 297.804 91.328 297.456 Q 91.328 297.096 91.55601 296.886 Q 91.784004 296.676 92.18 296.676 Q 92.576 296.676 92.804 296.886 Q 93.032 297.096 93.032 297.456 Q 93.032 297.804 92.804 298.008 Q 92.576 298.212 92.18 298.212 Z M 98.492 306 L 96.248 299.4 L 97.411995 299.4 L 98.852 303.84 Q 98.984 304.236 99.079994 304.602 Q 99.175995 304.968 99.224 305.172 Q 99.284 304.968 99.368 304.602 Q 99.451996 304.236 99.572 303.84 L 101.012 299.4 L 102.152 299.4 L 99.908 306 L 98.492 306 Z M 106.4 306.12 Q 105.236 306.12 104.522 305.418 Q 103.808014 304.716 103.808014 303.48 L 103.808014 301.92 Q 103.808014 300.684 104.522 299.982 Q 105.236 299.28 106.4 299.28 Q 107.18 299.28 107.762 299.592 Q 108.344 299.904 108.668 300.468 Q 108.992 301.032 108.992 301.8 L 108.992 302.976 L 104.86401 302.976 L 104.86401 303.6 Q 104.86401 304.332 105.284004 304.758 Q 105.703995 305.184 106.4 305.184 Q 107 305.184 107.39 304.95 Q 107.78001 304.716 107.864006 304.32 L 108.94401 304.32 Q 108.836006 305.148 108.14 305.634 Q 107.444 306.12 106.4 306.12 Z M 104.86401 302.136 L 107.936 302.136 L 107.936 301.8 Q 107.936 301.02 107.53401 300.594 Q 107.132 300.168 106.4 300.168 Q 105.66801 300.168 105.266 300.594 Q 104.86401 301.02 104.86401 301.8 L 104.86401 302.136 Z M 113.336006 306.096 Q 112.231995 306.096 111.62601 305.598 Q 111.020004 305.1 111.020004 304.188 L 112.09999 304.188 Q 112.09999 304.644 112.42401 304.902 Q 112.748 305.16 113.336006 305.16 L 113.864 305.16 Q 114.464 305.16 114.79399 304.896 Q 115.124 304.632 115.124 304.152 Q 115.124 303.3 114.343994 303.192 L 112.52 302.928 Q 111.848 302.832 111.476 302.37 Q 111.104 301.908 111.104 301.152 Q 111.104 300.288 111.698006 299.796 Q 112.29201 299.304 113.336006 299.304 L 113.864 299.304 Q 114.824 299.304 115.43 299.778 Q 116.036 300.252 116.084 301.02 L 114.992 301.02 Q 114.968 300.672 114.662 300.444 Q 114.355995 300.216 113.864 300.216 L 113.336006 300.216 Q 112.784 300.216 112.472 300.468 Q 112.16 300.72 112.16 301.152 Q 112.16 301.848 112.796 301.944 L 114.50001 302.184 Q 116.18 302.424 116.18 304.152 Q 116.18 305.076 115.574 305.586 Q 114.968 306.096 113.864 306.096 L 113.336006 306.096 Z M 127.424 306.12 Q 126.40401 306.12 125.804 305.55 Q 125.204 304.98 125.204 304.056 Q 125.204 303.444 125.48001 302.988 Q 125.756004 302.532 126.248 302.274 Q 126.74 302.016 127.37599 302.016 L 129.416 302.016 L 129.416 301.5 Q 129.416 300.216 128.01201 300.216 Q 127.38799 300.216 127.004 300.444 Q 126.62 300.672 126.596 301.08 L 125.516 301.08 Q 125.576004 300.3 126.242004 299.79 Q 126.908005 299.28 128.01201 299.28 Q 129.212 299.28 129.854 299.856 Q 130.496 300.432 130.496 301.464 L 130.496 306 L 129.42801 306 L 129.42801 304.8 L 129.404 304.8 Q 129.308 305.412 128.792 305.766 Q 128.276 306.12 127.424 306.12 Z M 127.68801 305.208 Q 128.48 305.208 128.948 304.824 Q 129.416 304.44 129.416 303.78 L 129.416 302.856 L 127.495995 302.856 Q 126.968 302.856 126.638 303.174 Q 126.30799 303.492 126.30799 304.02 Q 126.30799 304.572 126.674 304.89 Q 127.04 305.208 127.68801 305.208 Z M 141.692 306 L 139.448 299.4 L 140.612 299.4 L 142.052 303.84 Q 142.184 304.236 142.28 304.602 Q 142.376 304.968 142.424 305.172 Q 142.48401 304.968 142.56801 304.602 Q 142.65201 304.236 142.772 303.84 L 144.212 299.4 L 145.352 299.4 L 143.108 306 L 141.692 306 Z M 149.6 306.12 Q 148.436 306.12 147.722 305.418 Q 147.008 304.716 147.008 303.48 L 147.008 301.92 Q 147.008 300.684 147.722 299.982 Q 148.436 299.28 149.6 299.28 Q 150.38 299.28 150.962 299.592 Q 151.544 299.904 151.868 300.468 Q 152.192 301.032 152.192 301.8 L 152.192 302.976 L 148.064 302.976 L 148.064 303.6 Q 148.064 304.332 148.484 304.758 Q 148.904 305.184 149.6 305.184 Q 150.2 305.184 150.59 304.95 Q 150.98 304.716 151.064 304.32 L 152.144 304.32 Q 152.036 305.148 151.34 305.634 Q 150.644 306.12 149.6 306.12 Z M 148.064 302.136 L 151.136 302.136 L 151.136 301.8 Q 151.136 301.02 150.734 300.594 Q 150.332 300.168 149.6 300.168 Q 148.868 300.168 148.466 300.594 Q 148.064 301.02 148.064 301.8 L 148.064 302.136 Z M 154.54399 306 L 154.54399 299.4 L 155.624 299.4 L 155.624 300.66 L 155.648 300.66 Q 155.732 300.024 156.188 299.652 Q 156.644 299.28 157.412 299.28 Q 158.444 299.28 159.002 299.898 Q 159.56 300.516 159.56 301.656 L 159.56 302.22 L 158.48 302.22 L 158.48 301.656 Q 158.48 300.216 157.076 300.216 Q 156.368 300.216 155.996 300.624 Q 155.624 301.032 155.624 301.8 L 155.624 306 L 154.54399 306 Z M 164.65999 306 Q 163.844 306 163.35199 305.526 Q 162.86 305.052 162.86 304.26 L 162.86 300.384 L 160.96399 300.384 L 160.96399 299.4 L 162.86 299.4 L 162.86 297.54 L 163.93999 297.54 L 163.93999 299.4 L 166.64 299.4 L 166.64 300.384 L 163.93999 300.384 L 163.93999 304.26 Q 163.93999 304.596 164.138 304.806 Q 164.336 305.016 164.65999 305.016 L 166.57999 305.016 L 166.57999 306 L 164.65999 306 Z M 171.2 306.12 Q 170.036 306.12 169.32199 305.418 Q 168.60799 304.716 168.60799 303.48 L 168.60799 301.92 Q 168.60799 300.684 169.32199 299.982 Q 170.036 299.28 171.2 299.28 Q 171.98 299.28 172.562 299.592 Q 173.144 299.904 173.468 300.468 Q 173.79199 301.032 173.79199 301.8 L 173.79199 302.976 L 169.66399 302.976 L 169.66399 303.6 Q 169.66399 304.332 170.08398 304.758 Q 170.504 305.184 171.2 305.184 Q 171.79999 305.184 172.18999 304.95 Q 172.57999 304.716 172.66399 304.32 L 173.74399 304.32 Q 173.63599 305.148 172.93999 305.634 Q 172.24399 306.12 171.2 306.12 Z M 169.66399 302.136 L 172.736 302.136 L 172.736 301.8 Q 172.736 301.02 172.33398 300.594 Q 171.93199 300.168 171.2 300.168 Q 170.46799 300.168 170.066 300.594 Q 169.66399 301.02 169.66399 301.8 L 169.66399 302.136 Z M 175.4 306 L 177.73997 302.604 L 175.54399 299.4 L 176.81598 299.4 L 178.12401 301.44 Q 178.208 301.572 178.28598 301.728 Q 178.36398 301.884 178.41199 301.98 Q 178.44797 301.884 178.52599 301.728 Q 178.60399 301.572 178.68797 301.44 L 179.996 299.4 L 181.26799 299.4 L 179.072 302.616 L 181.40001 306 L 180.12799 306 L 178.71198 303.84 Q 178.62799 303.708 178.54999 303.534 Q 178.47197 303.36 178.41199 303.252 Q 178.36398 303.36 178.274 303.534 Q 178.18399 303.708 178.08798 303.84 L 176.672 306 L 175.4 306 Z M 190.30399 306 L 190.30399 299.4 L 191.38399 299.4 L 191.38399 300.66 L 191.39598 300.66 Q 191.47997 300 191.93597 299.64 Q 192.39198 299.28 193.14798 299.28 Q 194.144 299.28 194.73196 299.892 Q 195.31998 300.504 195.31998 301.56 L 195.31998 306 L 194.23997 306 L 194.23997 301.752 Q 194.23997 300.996 193.86198 300.594 Q 193.48398 300.192 192.83597 300.192 Q 192.16399 300.192 191.77399 300.612 Q 191.38399 301.032 191.38399 301.8 L 191.38399 306 L 190.30399 306 Z M 199.99998 306.096 Q 198.81198 306.096 198.10999 305.4 Q 197.40797 304.704 197.40797 303.456 L 197.40797 301.944 Q 197.40797 300.684 198.10399 299.994 Q 198.79997 299.304 199.99998 299.304 Q 201.19998 299.304 201.89598 299.994 Q 202.592 300.684 202.592 301.944 L 202.592 303.456 Q 202.592 304.704 201.88997 305.4 Q 201.18796 306.096 199.99998 306.096 Z M 199.99998 305.136 Q 200.70798 305.136 201.11 304.74 Q 201.51198 304.344 201.51198 303.576 L 201.51198 301.824 Q 201.51198 301.056 201.11 300.66 Q 200.70798 300.264 199.99998 300.264 Q 199.30399 300.264 198.89598 300.66 Q 198.48798 301.056 198.48798 301.824 L 198.48798 303.576 Q 198.48798 304.344 198.89598 304.74 Q 199.30399 305.136 199.99998 305.136 Z M 206.81596 306.12 Q 205.83197 306.12 205.23799 305.46 Q 204.64398 304.8 204.64398 303.672 L 204.64398 301.74 Q 204.64398 300.6 205.23198 299.94 Q 205.81999 299.28 206.81596 299.28 Q 207.55998 299.28 208.04597 299.652 Q 208.53198 300.024 208.62798 300.66 L 208.63995 300.66 L 208.61598 299.16 L 208.61598 297.24 L 209.69597 297.24 L 209.69597 306 L 208.61598 306 L 208.61598 304.74 L 208.60397 304.74 Q 208.51997 305.388 208.03998 305.754 Q 207.55998 306.12 206.81596 306.12 Z M 207.17598 305.184 Q 207.84798 305.184 208.23198 304.764 Q 208.61598 304.344 208.61598 303.6 L 208.61598 301.8 Q 208.61598 301.056 208.23198 300.636 Q 207.84798 300.216 207.17598 300.216 Q 206.49197 300.216 206.10797 300.57 Q 205.72397 300.924 205.72397 301.74 L 205.72397 303.66 Q 205.72397 304.464 206.10797 304.824 Q 206.49197 305.184 207.17598 305.184 Z M 214.39998 306.12 Q 213.23598 306.12 212.52196 305.418 Q 211.80797 304.716 211.80797 303.48 L 211.80797 301.92 Q 211.80797 300.684 212.52196 299.982 Q 213.23598 299.28 214.39998 299.28 Q 215.17998 299.28 215.76198 299.592 Q 216.34398 299.904 216.66797 300.468 Q 216.99197 301.032 216.99197 301.8 L 216.99197 302.976 L 212.86395 302.976 L 212.86395 303.6 Q 212.86395 304.332 213.28397 304.758 Q 213.704 305.184 214.39998 305.184 Q 214.99995 305.184 215.38997 304.95 Q 215.77997 304.716 215.86397 304.32 L 216.94397 304.32 Q 216.83597 305.148 216.13995 305.634 Q 215.44397 306.12 214.39998 306.12 Z M 212.86395 302.136 L 215.93597 302.136 L 215.93597 301.8 Q 215.93597 301.02 215.53395 300.594 Q 215.13197 300.168 214.39998 300.168 Q 213.66797 300.168 213.26598 300.594 Q 212.86395 301.02 212.86395 301.8 L 212.86395 302.136 Z M 228.79997 306.096 Q 227.61197 306.096 226.90999 305.4 Q 226.20796 304.704 226.20796 303.456 L 226.20796 301.944 Q 226.20796 300.684 226.90396 299.994 Q 227.59996 299.304 228.79997 299.304 Q 229.99997 299.304 230.69598 299.994 Q 231.39197 300.684 231.39197 301.944 L 231.39197 303.456 Q 231.39197 304.704 230.68997 305.4 Q 229.98796 306.096 228.79997 306.096 Z M 228.79997 305.136 Q 229.50798 305.136 229.90997 304.74 Q 230.31195 304.344 230.31195 303.576 L 230.31195 301.824 Q 230.31195 301.056 229.90997 300.66 Q 229.50798 300.264 228.79997 300.264 Q 228.10397 300.264 227.69597 300.66 Q 227.28796 301.056 227.28796 301.824 L 227.28796 303.576 Q 227.28796 304.344 227.69597 304.74 Q 228.10397 305.136 228.79997 305.136 Z M 235.29196 306 L 233.04796 299.4 L 234.21196 299.4 L 235.65195 303.84 Q 235.78397 304.236 235.87996 304.602 Q 235.97597 304.968 236.02396 305.172 Q 236.08398 304.968 236.16797 304.602 Q 236.25197 304.236 236.37196 303.84 L 237.81195 299.4 L 238.95195 299.4 L 236.70796 306 L 235.29196 306 Z M 243.19997 306.12 Q 242.03596 306.12 241.32196 305.418 Q 240.60796 304.716 240.60796 303.48 L 240.60796 301.92 Q 240.60796 300.684 241.32196 299.982 Q 242.03596 299.28 243.19997 299.28 Q 243.97997 299.28 244.56197 299.592 Q 245.14397 299.904 245.46796 300.468 Q 245.79196 301.032 245.79196 301.8 L 245.79196 302.976 L 241.66396 302.976 L 241.66396 303.6 Q 241.66396 304.332 242.08397 304.758 Q 242.50397 305.184 243.19997 305.184 Q 243.79996 305.184 244.18996 304.95 Q 244.57996 304.716 244.66396 304.32 L 245.74396 304.32 Q 245.63596 305.148 244.93996 305.634 Q 244.24394 306.12 243.19997 306.12 Z M 241.66396 302.136 L 244.73596 302.136 L 244.73596 301.8 Q 244.73596 301.02 244.33395 300.594 Q 243.93196 300.168 243.19997 300.168 Q 242.46796 300.168 242.06596 300.594 Q 241.66396 301.02 241.66396 301.8 L 241.66396 302.136 Z M 248.14395 306 L 248.14395 299.4 L 249.22395 299.4 L 249.22395 300.66 L 249.24796 300.66 Q 249.33195 300.024 249.78796 299.652 Q 250.24396 299.28 251.01198 299.28 Q 252.04396 299.28 252.60196 299.898 Q 253.15996 300.516 253.15996 301.656 L 253.15996 302.22 L 252.07997 302.22 L 252.07997 301.656 Q 252.07997 300.216 250.67596 300.216 Q 249.96796 300.216 249.59596 300.624 Q 249.22395 301.032 249.22395 301.8 L 249.22395 306 L 248.14395 306 Z M 263.13196 308.16 L 263.13196 307.176 L 264.99194 307.176 Q 265.55594 307.176 265.87994 306.858 Q 266.20395 306.54 266.20395 306 L 266.20395 305.4 L 266.22797 304.32 L 266.19196 304.32 Q 266.09595 304.908 265.62796 305.226 Q 265.15994 305.544 264.45197 305.544 Q 263.43195 305.544 262.84396 304.896 Q 262.25595 304.248 262.25595 303.12 L 262.25595 301.728 Q 262.25595 300.6 262.84396 299.94 Q 263.43195 299.28 264.45197 299.28 Q 265.15994 299.28 265.62796 299.616 Q 266.09595 299.952 266.19196 300.54 L 266.21594 300.54 L 266.21594 299.4 L 267.28397 299.4 L 267.28397 306 Q 267.28397 306.996 266.66595 307.578 Q 266.04794 308.16 264.97995 308.16 L 263.13196 308.16 Z M 264.77594 304.644 Q 265.44794 304.644 265.83194 304.224 Q 266.21594 303.804 266.21594 303.06 L 266.21594 301.8 Q 266.21594 301.056 265.83194 300.636 Q 265.44794 300.216 264.77594 300.216 Q 264.09195 300.216 263.71396 300.612 Q 263.33594 301.008 263.33594 301.68 L 263.33594 303.18 Q 263.33594 303.852 263.71396 304.248 Q 264.09195 304.644 264.77594 304.644 Z M 269.51596 306 L 269.51596 297.24 L 272.21597 297.24 Q 272.99597 297.24 273.58395 297.558 Q 274.17197 297.876 274.49597 298.44 Q 274.81998 299.004 274.81998 299.76 Q 274.81998 300.648 274.36395 301.284 Q 273.90796 301.92 273.15198 302.172 L 274.93997 306 L 273.75195 306 L 272.03595 302.28 L 270.58395 302.28 L 270.58395 306 L 269.51596 306 Z M 270.58395 301.308 L 272.21597 301.308 Q 272.88797 301.308 273.29596 300.882 Q 273.70395 300.456 273.70395 299.76 Q 273.70395 299.052 273.29596 298.632 Q 272.88797 298.212 272.21597 298.212 L 270.58395 298.212 L 270.58395 301.308 Z M 276.70395 306 L 276.70395 297.24 L 279.52396 297.24 Q 280.74796 297.24 281.47394 297.942 Q 282.19995 298.644 282.19995 299.82 Q 282.19995 300.996 281.47394 301.698 Q 280.74796 302.4 279.52396 302.4 L 277.78394 302.4 L 277.78394 306 L 276.70395 306 Z M 277.78394 301.428 L 279.52396 301.428 Q 280.23193 301.428 280.65796 300.99 Q 281.08395 300.552 281.08395 299.82 Q 281.08395 299.076 280.65796 298.644 Q 280.23193 298.212 279.52396 298.212 L 277.78394 298.212 L 277.78394 301.428 Z M 286.49594 306.12 Q 285.29593 306.12 284.5999 305.448 Q 283.90393 304.776 283.90393 303.6 L 283.90393 299.64 Q 283.90393 298.464 284.5999 297.792 Q 285.29593 297.12 286.49594 297.12 Q 287.67194 297.12 288.36792 297.798 Q 289.06393 298.476 289.06393 299.64 L 287.98392 299.64 Q 287.98392 298.896 287.59393 298.494 Q 287.20392 298.092 286.49594 298.092 Q 285.78793 298.092 285.38593 298.494 Q 284.98392 298.896 284.98392 299.64 L 284.98392 303.6 Q 284.98392 304.344 285.38593 304.746 Q 285.78793 305.148 286.49594 305.148 Q 287.20392 305.148 287.59393 304.746 Q 287.98392 304.344 287.98392 303.6 L 289.06393 303.6 Q 289.06393 304.764 288.36792 305.442 Q 287.67194 306.12 286.49594 306.12 Z M 300.79996 302.88 Q 300.35596 302.88 300.08594 302.616 Q 299.81595 302.352 299.81595 301.932 Q 299.81595 301.488 300.08594 301.212 Q 300.35596 300.936 300.79996 300.936 Q 301.24396 300.936 301.51395 301.212 Q 301.78397 301.488 301.78397 301.932 Q 301.78397 302.352 301.51395 302.616 Q 301.24396 302.88 300.79996 302.88 Z M 314.9359 306.096 Q 313.8319 306.096 313.22592 305.598 Q 312.6199 305.1 312.6199 304.188 L 313.69992 304.188 Q 313.69992 304.644 314.02393 304.902 Q 314.3479 305.16 314.9359 305.16 L 315.46393 305.16 Q 316.0639 305.16 316.39392 304.896 Q 316.7239 304.632 316.7239 304.152 Q 316.7239 303.3 315.9439 303.192 L 314.1199 302.928 Q 313.4479 302.832 313.07593 302.37 Q 312.70392 301.908 312.70392 301.152 Q 312.70392 300.288 313.2979 299.796 Q 313.8919 299.304 314.9359 299.304 L 315.46393 299.304 Q 316.42392 299.304 317.0299 299.778 Q 317.63593 300.252 317.68393 301.02 L 316.59192 301.02 Q 316.5679 300.672 316.2619 300.444 Q 315.9559 300.216 315.46393 300.216 L 314.9359 300.216 Q 314.3839 300.216 314.0719 300.468 Q 313.75992 300.72 313.75992 301.152 Q 313.75992 301.848 314.3959 301.944 L 316.0999 302.184 Q 317.7799 302.424 317.7799 304.152 Q 317.7799 305.076 317.17392 305.586 Q 316.5679 306.096 315.46393 306.096 L 314.9359 306.096 Z M 323.05994 306 Q 322.24393 306 321.75192 305.526 Q 321.25992 305.052 321.25992 304.26 L 321.25992 300.384 L 319.36392 300.384 L 319.36392 299.4 L 321.25992 299.4 L 321.25992 297.54 L 322.33994 297.54 L 322.33994 299.4 L 325.03992 299.4 L 325.03992 300.384 L 322.33994 300.384 L 322.33994 304.26 Q 322.33994 304.596 322.53793 304.806 Q 322.73593 305.016 323.05994 305.016 L 324.97992 305.016 L 324.97992 306 L 323.05994 306 Z M 329.02393 306.12 Q 328.00394 306.12 327.40393 305.55 Q 326.80392 304.98 326.80392 304.056 Q 326.80392 303.444 327.07993 302.988 Q 327.35593 302.532 327.84793 302.274 Q 328.33994 302.016 328.97595 302.016 L 331.01593 302.016 L 331.01593 301.5 Q 331.01593 300.216 329.61194 300.216 Q 328.98795 300.216 328.60394 300.444 Q 328.21994 300.672 328.19595 301.08 L 327.11594 301.08 Q 327.17593 300.3 327.84195 299.79 Q 328.50793 299.28 329.61194 299.28 Q 330.81195 299.28 331.45395 299.856 Q 332.09595 300.432 332.09595 301.464 L 332.09595 306 L 331.02795 306 L 331.02795 304.8 L 331.00394 304.8 Q 330.90793 305.412 330.39194 305.766 Q 329.87595 306.12 329.02393 306.12 Z M 329.28793 305.208 Q 330.07993 305.208 330.54794 304.824 Q 331.01593 304.44 331.01593 303.78 L 331.01593 302.856 L 329.09595 302.856 Q 328.56793 302.856 328.23795 303.174 Q 327.90793 303.492 327.90793 304.02 Q 327.90793 304.572 328.27393 304.89 Q 328.63995 305.208 329.28793 305.208 Z M 333.91992 306 L 333.91992 299.4 L 334.85593 299.4 L 334.85593 300.276 L 334.8799 300.276 Q 334.9399 299.832 335.23392 299.556 Q 335.52792 299.28 335.98392 299.28 Q 336.41592 299.28 336.7159 299.532 Q 337.01593 299.784 337.14792 300.216 L 337.1599 300.216 Q 337.24393 299.784 337.53793 299.532 Q 337.8319 299.28 338.28793 299.28 Q 338.92392 299.28 339.3019 299.754 Q 339.67993 300.228 339.67993 300.984 L 339.67993 306 L 338.67194 306 L 338.67194 300.972 Q 338.67194 300.576 338.47992 300.342 Q 338.28793 300.108 337.95193 300.108 Q 337.62793 300.108 337.4359 300.336 Q 337.24393 300.564 337.24393 300.96 L 337.24393 306 L 336.35593 306 L 336.35593 300.972 Q 336.35593 300.576 336.1639 300.342 Q 335.97192 300.108 335.64792 300.108 Q 335.31192 300.108 335.11993 300.336 Q 334.92792 300.564 334.92792 300.96 L 334.92792 306 L 333.91992 306 Z M 341.50394 308.16 L 341.50394 299.4 L 342.58392 299.4 L 342.58392 300.66 L 342.59595 300.66 Q 342.67993 300.012 343.15994 299.646 Q 343.63995 299.28 344.38394 299.28 Q 345.37997 299.28 345.96796 299.934 Q 346.55594 300.588 346.55594 301.728 L 346.55594 303.66 Q 346.55594 304.8 345.96796 305.46 Q 345.37997 306.12 344.38394 306.12 Q 343.63995 306.12 343.15994 305.748 Q 342.67993 305.376 342.59595 304.74 L 342.55994 304.74 L 342.58392 306.24 L 342.58392 308.16 L 341.50394 308.16 Z M 344.02396 305.184 Q 344.70795 305.184 345.09192 304.824 Q 345.47592 304.464 345.47592 303.66 L 345.47592 301.74 Q 345.47592 300.924 345.09192 300.57 Q 344.70795 300.216 344.02396 300.216 Q 343.36392 300.216 342.97394 300.636 Q 342.58392 301.056 342.58392 301.8 L 342.58392 303.6 Q 342.58392 304.344 342.97394 304.764 Q 343.36392 305.184 344.02396 305.184 Z M 350.93594 306.096 Q 349.83194 306.096 349.22595 305.598 Q 348.61993 305.1 348.61993 304.188 L 349.69992 304.188 Q 349.69992 304.644 350.02396 304.902 Q 350.34793 305.16 350.93594 305.16 L 351.46396 305.16 Q 352.06393 305.16 352.39395 304.896 Q 352.72394 304.632 352.72394 304.152 Q 352.72394 303.3 351.94394 303.192 L 350.11993 302.928 Q 349.44794 302.832 349.07596 302.37 Q 348.70395 301.908 348.70395 301.152 Q 348.70395 300.288 349.29794 299.796 Q 349.89197 299.304 350.93594 299.304 L 351.46396 299.304 Q 352.42395 299.304 353.02994 299.778 Q 353.63596 300.252 353.68396 301.02 L 352.59195 301.02 Q 352.56796 300.672 352.26193 300.444 Q 351.95593 300.216 351.46396 300.216 L 350.93594 300.216 Q 350.3839 300.216 350.07196 300.468 Q 349.75995 300.72 349.75995 301.152 Q 349.75995 301.848 350.39594 301.944 L 352.09995 302.184 Q 353.77997 302.424 353.77997 304.152 Q 353.77997 305.076 353.17395 305.586 Q 352.56796 306.096 351.46396 306.096 L 350.93594 306.096 Z M 365.696 306.12 Q 364.49594 306.12 363.77597 305.448 Q 363.05597 304.776 363.05597 303.6 L 363.05597 301.8 Q 363.05597 300.624 363.77597 299.952 Q 364.49594 299.28 365.696 299.28 Q 366.83597 299.28 367.53796 299.892 Q 368.23993 300.504 368.276 301.56 L 367.19598 301.56 Q 367.16 300.924 366.76398 300.582 Q 366.36798 300.24 365.696 300.24 Q 364.98798 300.24 364.56198 300.642 Q 364.13596 301.044 364.13596 301.788 L 364.13596 303.6 Q 364.13596 304.344 364.56198 304.752 Q 364.98798 305.16 365.696 305.16 Q 366.36798 305.16 366.76398 304.812 Q 367.16 304.464 367.19598 303.84 L 368.276 303.84 Q 368.23993 304.896 367.53796 305.508 Q 366.83597 306.12 365.696 306.12 Z M 370.304 306 L 370.304 297.24 L 371.384 297.24 L 371.384 300.66 L 371.396 300.66 Q 371.47995 300 371.93597 299.64 Q 372.39197 299.28 373.14798 299.28 Q 374.144 299.28 374.732 299.892 Q 375.31998 300.504 375.31998 301.56 L 375.31998 306 L 374.24002 306 L 374.24002 301.74 Q 374.24002 300.996 373.86194 300.594 Q 373.48398 300.192 372.836 300.192 Q 372.16394 300.192 371.774 300.612 Q 371.384 301.032 371.384 301.8 L 371.384 306 L 370.304 306 Z M 379.988 306.12 Q 378.84802 306.12 378.16403 305.442 Q 377.47998 304.764 377.47998 303.6 L 377.47998 299.4 L 378.55997 299.4 L 378.55997 303.6 Q 378.55997 304.32 378.94403 304.746 Q 379.32803 305.172 379.988 305.172 Q 380.66 305.172 381.05 304.746 Q 381.44 304.32 381.44 303.6 L 381.44 299.4 L 382.52 299.4 L 382.52 303.6 Q 382.52 304.764 381.824 305.442 Q 381.12802 306.12 379.988 306.12 Z M 384.704 306 L 384.704 299.4 L 385.78403 299.4 L 385.78403 300.66 L 385.79602 300.66 Q 385.88004 300 386.336 299.64 Q 386.792 299.28 387.548 299.28 Q 388.544 299.28 389.132 299.892 Q 389.71997 300.504 389.71997 301.56 L 389.71997 306 L 388.64005 306 L 388.64005 301.752 Q 388.64005 300.996 388.26202 300.594 Q 387.884 300.192 387.236 300.192 Q 386.56403 300.192 386.17398 300.612 Q 385.78403 301.032 385.78403 301.8 L 385.78403 306 L 384.704 306 Z M 391.96402 306 L 391.96402 297.24 L 393.044 297.24 L 393.044 302.124 L 394.30402 302.124 L 396.152 299.4 L 397.38803 299.4 L 395.264 302.544 L 397.50803 306 L 396.24802 306 L 394.32803 303.06 L 393.044 303.06 L 393.044 306 L 391.96402 306 Z M 401.33603 306.096 Q 400.23203 306.096 399.62604 305.598 Q 399.02002 305.1 399.02002 304.188 L 400.10004 304.188 Q 400.10004 304.644 400.42407 304.902 Q 400.74802 305.16 401.33603 305.16 L 401.86404 305.16 Q 402.46402 305.16 402.79404 304.896 Q 403.12402 304.632 403.12402 304.152 Q 403.12402 303.3 402.34402 303.192 L 400.52002 302.928 Q 399.84805 302.832 399.47604 302.37 Q 399.10403 301.908 399.10403 301.152 Q 399.10403 300.288 399.69803 299.796 Q 400.292 299.304 401.33603 299.304 L 401.86404 299.304 Q 402.82404 299.304 403.43002 299.778 Q 404.03604 300.252 404.08405 301.02 L 402.99203 301.02 Q 402.96802 300.672 402.66202 300.444 Q 402.35602 300.216 401.86404 300.216 L 401.33603 300.216 Q 400.78403 300.216 400.47208 300.468 Q 400.16003 300.72 400.16003 301.152 Q 400.16003 301.848 400.79602 301.944 L 402.50003 302.184 Q 404.18002 302.424 404.18002 304.152 Q 404.18002 305.076 403.57404 305.586 Q 402.96802 306.096 401.86404 306.096 L 401.33603 306.096 Z M 413.85205 306 L 412.77206 299.4 L 413.70807 299.4 L 414.38007 304.056 Q 414.41605 304.32 414.45203 304.638 Q 414.4881 304.956 414.50003 305.16 Q 414.52405 304.956 414.55402 304.638 Q 414.58405 304.32 414.63205 304.056 L 415.46005 299.4 L 416.54007 299.4 L 417.368 304.056 Q 417.41602 304.32 417.45804 304.638 Q 417.5001 304.956 417.51202 305.16 Q 417.53604 304.956 417.57205 304.638 Q 417.60806 304.32 417.64404 304.056 L 418.34006 299.4 L 419.22806 299.4 L 418.10007 306 L 416.91205 306 L 416.15607 301.44 Q 416.10806 301.104 416.06604 300.726 Q 416.02405 300.348 416.00003 300.144 Q 415.98807 300.348 415.94006 300.726 Q 415.89206 301.104 415.83206 301.44 L 415.04007 306 L 413.85205 306 Z M 420.62006 306 L 420.62006 305.016 L 422.96005 305.016 L 422.96005 300.384 L 420.86008 300.384 L 420.86008 299.4 L 424.04007 299.4 L 424.04007 305.016 L 426.26007 305.016 L 426.26007 306 L 420.62006 306 Z M 423.38004 298.212 Q 422.9841 298.212 422.75607 298.008 Q 422.52808 297.804 422.52808 297.456 Q 422.52808 297.096 422.75607 296.886 Q 422.9841 296.676 423.38004 296.676 Q 423.77606 296.676 424.0041 296.886 Q 424.23206 297.096 424.23206 297.456 Q 424.23206 297.804 424.0041 298.008 Q 423.77606 298.212 423.38004 298.212 Z M 431.0601 306 Q 430.24408 306 429.75208 305.526 Q 429.26007 305.052 429.26007 304.26 L 429.26007 300.384 L 427.36407 300.384 L 427.36407 299.4 L 429.26007 299.4 L 429.26007 297.54 L 430.3401 297.54 L 430.3401 299.4 L 433.04007 299.4 L 433.04007 300.384 L 430.3401 300.384 L 430.3401 304.26 Q 430.3401 304.596 430.5381 304.806 Q 430.73608 305.016 431.0601 305.016 L 432.9801 305.016 L 432.9801 306 L 431.0601 306 Z M 435.10413 306 L 435.10413 297.24 L 436.18405 297.24 L 436.18405 300.66 L 436.1961 300.66 Q 436.28006 300 436.73608 299.64 Q 437.19208 299.28 437.9481 299.28 Q 438.94406 299.28 439.5321 299.892 Q 440.1201 300.504 440.1201 301.56 L 440.1201 306 L 439.04007 306 L 439.04007 301.74 Q 439.04007 300.996 438.66205 300.594 Q 438.2841 300.192 437.6361 300.192 Q 436.96405 300.192 436.5741 300.612 Q 436.18405 301.032 436.18405 301.8 L 436.18405 306 L 435.10413 306 Z M 449.50412 306 L 449.50412 299.4 L 450.58414 299.4 L 450.58414 300.66 L 450.59613 300.66 Q 450.68008 300 451.1361 299.64 Q 451.5921 299.28 452.3481 299.28 Q 453.34415 299.28 453.93213 299.892 Q 454.52008 300.504 454.52008 301.56 L 454.52008 306 L 453.44016 306 L 453.44016 301.752 Q 453.44016 300.996 453.06213 300.594 Q 452.6841 300.192 452.0361 300.192 Q 451.36407 300.192 450.9741 300.612 Q 450.58414 301.032 450.58414 301.8 L 450.58414 306 L 449.50412 306 Z M 459.20013 306.12 Q 458.03613 306.12 457.3221 305.418 Q 456.60812 304.716 456.60812 303.48 L 456.60812 301.92 Q 456.60812 300.684 457.3221 299.982 Q 458.03613 299.28 459.20013 299.28 Q 459.98013 299.28 460.56213 299.592 Q 461.14413 299.904 461.46814 300.468 Q 461.79214 301.032 461.79214 301.8 L 461.79214 302.976 L 457.66415 302.976 L 457.66415 303.6 Q 457.66415 304.332 458.08414 304.758 Q 458.50412 305.184 459.20013 305.184 Q 459.80014 305.184 460.1901 304.95 Q 460.58014 304.716 460.66412 304.32 L 461.74414 304.32 Q 461.63617 305.148 460.94012 305.634 Q 460.24414 306.12 459.20013 306.12 Z M 457.66415 302.136 L 460.7361 302.136 L 460.7361 301.8 Q 460.7361 301.02 460.3341 300.594 Q 459.93213 300.168 459.20013 300.168 Q 458.46814 300.168 458.06613 300.594 Q 457.66415 301.02 457.66415 301.8 L 457.66415 302.136 Z M 466.49615 306.12 Q 465.29614 306.12 464.57614 305.448 Q 463.85614 304.776 463.85614 303.6 L 463.85614 301.8 Q 463.85614 300.624 464.57614 299.952 Q 465.29614 299.28 466.49615 299.28 Q 467.63614 299.28 468.3381 299.892 Q 469.04013 300.504 469.07614 301.56 L 467.99612 301.56 Q 467.96014 300.924 467.56415 300.582 Q 467.16812 300.24 466.49615 300.24 Q 465.78815 300.24 465.36215 300.642 Q 464.93613 301.044 464.93613 301.788 L 464.93613 303.6 Q 464.93613 304.344 465.36215 304.752 Q 465.78815 305.16 466.49615 305.16 Q 467.16812 305.16 467.56415 304.812 Q 467.96014 304.464 467.99612 303.84 L 469.07614 303.84 Q 469.04013 304.896 468.3381 305.508 Q 467.63614 306.12 466.49615 306.12 Z M 474.26016 306 Q 473.44415 306 472.95215 305.526 Q 472.4601 305.052 472.4601 304.26 L 472.4601 300.384 L 470.56418 300.384 L 470.56418 299.4 L 472.4601 299.4 L 472.4601 297.54 L 473.54016 297.54 L 473.54016 299.4 L 476.24017 299.4 L 476.24017 300.384 L 473.54016 300.384 L 473.54016 304.26 Q 473.54016 304.596 473.73816 304.806 Q 473.93616 305.016 474.26016 305.016 L 476.18015 305.016 L 476.18015 306 L 474.26016 306 Z M 480.22412 306.12 Q 479.20413 306.12 478.60416 305.55 Q 478.00415 304.98 478.00415 304.056 Q 478.00415 303.444 478.28018 302.988 Q 478.55615 302.532 479.04816 302.274 Q 479.54013 302.016 480.17618 302.016 L 482.21616 302.016 L 482.21616 301.5 Q 482.21616 300.216 480.81216 300.216 Q 480.18817 300.216 479.80417 300.444 Q 479.42017 300.672 479.39618 301.08 L 478.31616 301.08 Q 478.37613 300.3 479.0422 299.79 Q 479.70816 299.28 480.81216 299.28 Q 482.01215 299.28 482.65417 299.856 Q 483.29617 300.432 483.29617 301.464 L 483.29617 306 L 482.22815 306 L 482.22815 304.8 L 482.2042 304.8 Q 482.1082 305.412 481.59216 305.766 Q 481.07617 306.12 480.22412 306.12 Z M 480.48816 305.208 Q 481.28015 305.208 481.74817 304.824 Q 482.21616 304.44 482.21616 303.78 L 482.21616 302.856 L 480.29617 302.856 Q 479.76816 302.856 479.43814 303.174 Q 479.10812 303.492 479.10812 304.02 Q 479.10812 304.572 479.47415 304.89 Q 479.84018 305.208 480.48816 305.208 Z M 485.7442 306 L 485.7442 299.4 L 486.8242 299.4 L 486.8242 300.66 L 486.84818 300.66 Q 486.9322 300.024 487.3882 299.652 Q 487.84418 299.28 488.61218 299.28 Q 489.64417 299.28 490.20218 299.898 Q 490.76016 300.516 490.76016 301.656 L 490.76016 302.22 L 489.68015 302.22 L 489.68015 301.656 Q 489.68015 300.216 488.27618 300.216 Q 487.56818 300.216 487.19617 300.624 Q 486.8242 301.032 486.8242 301.8 L 486.8242 306 L 485.7442 306 Z"/>
    </g>
    <g>
        <path fill="#a8d68a" stroke="none" d="M 1046.251 65 L 1044.194 58.95 L 1045.261 58.95 L 1046.5809 63.02 Q 1046.702 63.383 1046.7899 63.7185 Q 1046.8779 64.054 1046.922 64.241 Q 1046.9769 64.054 1047.054 63.7185 Q 1047.131 63.383 1047.241 63.02 L 1048.561 58.95 L 1049.606 58.95 L 1047.549 65 L 1046.251 65 Z M 1055.1001 65.11 Q 1053.989 65.11 1053.3346 64.4665 Q 1052.68 63.822998 1052.68 62.745003 L 1052.68 59.225002 Q 1052.68 58.147 1053.3346 57.5035 Q 1053.989 56.86 1055.1001 56.86 Q 1056.211 56.86 1056.8656 57.5035 Q 1057.52 58.147 1057.52 59.225002 L 1057.52 62.745003 Q 1057.52 63.46 1057.223 63.993496 Q 1056.926 64.527 1056.3816 64.8185 Q 1055.837 65.11 1055.1001 65.11 Z M 1055.1001 64.263 Q 1055.76 64.263 1056.1615 63.839497 Q 1056.563 63.416004 1056.563 62.745003 L 1056.563 59.225002 Q 1056.563 58.554 1056.1615 58.130497 Q 1055.76 57.707005 1055.1001 57.707005 Q 1054.4401 57.707005 1054.0386 58.130497 Q 1053.6371 58.554 1053.6371 59.225002 L 1053.6371 62.745003 Q 1053.6371 63.416004 1054.0386 63.839497 Q 1054.4401 64.263 1055.1001 64.263 Z M 1055.1001 61.59 Q 1054.8031 61.59 1054.6216 61.425 Q 1054.4401 61.259995 1054.4401 60.951996 Q 1054.4401 60.654995 1054.6216 60.4955 Q 1054.8031 60.336 1055.1001 60.336 Q 1055.3971 60.336 1055.5785 60.4955 Q 1055.76 60.654995 1055.76 60.951996 Q 1055.76 61.259995 1055.5785 61.425 Q 1055.3971 61.59 1055.1001 61.59 Z M 1063.3 65.11 Q 1062.893 65.11 1062.6455 64.868 Q 1062.398 64.626 1062.398 64.241 Q 1062.398 63.834 1062.6455 63.581 Q 1062.893 63.328 1063.3 63.328 Q 1063.707 63.328 1063.9545 63.581 Q 1064.202 63.834 1064.202 64.241 Q 1064.202 64.626 1063.9545 64.868 Q 1063.707 65.11 1063.3 65.11 Z M 1069.19 65 L 1069.19 64.098 L 1071.3679 64.098 L 1071.3679 57.828 L 1069.19 59.456 L 1069.19 58.323 L 1071.005 56.97 L 1072.3579 56.97 L 1072.3579 64.098 L 1074.1399 64.098 L 1074.1399 65 L 1069.19 65 Z M 1079.7001 65.11 Q 1079.293 65.11 1079.0455 64.868 Q 1078.798 64.626 1078.798 64.241 Q 1078.798 63.834 1079.0455 63.581 Q 1079.293 63.328 1079.7001 63.328 Q 1080.107 63.328 1080.3545 63.581 Q 1080.602 63.834 1080.602 64.241 Q 1080.602 64.626 1080.3545 64.868 Q 1080.107 65.11 1079.7001 65.11 Z M 1087.9 65.11 Q 1086.789 65.11 1086.1345 64.4665 Q 1085.48 63.822998 1085.48 62.745003 L 1085.48 59.225002 Q 1085.48 58.147 1086.1345 57.5035 Q 1086.789 56.86 1087.9 56.86 Q 1089.011 56.86 1089.6655 57.5035 Q 1090.32 58.147 1090.32 59.225002 L 1090.32 62.745003 Q 1090.32 63.46 1090.023 63.993496 Q 1089.726 64.527 1089.1815 64.8185 Q 1088.637 65.11 1087.9 65.11 Z M 1087.9 64.263 Q 1088.5599 64.263 1088.9614 63.839497 Q 1089.3629 63.416004 1089.3629 62.745003 L 1089.3629 59.225002 Q 1089.3629 58.554 1088.9614 58.130497 Q 1088.5599 57.707005 1087.9 57.707005 Q 1087.24 57.707005 1086.8385 58.130497 Q 1086.437 58.554 1086.437 59.225002 L 1086.437 62.745003 Q 1086.437 63.416004 1086.8385 63.839497 Q 1087.24 64.263 1087.9 64.263 Z M 1087.9 61.59 Q 1087.603 61.59 1087.4215 61.425 Q 1087.24 61.259995 1087.24 60.951996 Q 1087.24 60.654995 1087.4215 60.4955 Q 1087.603 60.336 1087.9 60.336 Q 1088.197 60.336 1088.3784 60.4955 Q 1088.5599 60.654995 1088.5599 60.951996 Q 1088.5599 61.259995 1088.3784 61.425 Q 1088.197 61.59 1087.9 61.59 Z M 1104.3 62.14 Q 1103.893 62.14 1103.6455 61.898 Q 1103.398 61.656 1103.398 61.271 Q 1103.398 60.864 1103.6455 60.611 Q 1103.893 60.358 1104.3 60.358 Q 1104.707 60.358 1104.9545 60.611 Q 1105.202 60.864 1105.202 61.271 Q 1105.202 61.656 1104.9545 61.898 Q 1104.707 62.14 1104.3 62.14 Z M 1118.412 65 L 1118.412 56.97 L 1120.9971 56.97 Q 1122.119 56.97 1122.7845 57.613495 Q 1123.4501 58.257 1123.4501 59.335 Q 1123.4501 60.413 1122.7845 61.056503 Q 1122.119 61.699997 1120.9971 61.699997 L 1119.402 61.699997 L 1119.402 65 L 1118.412 65 Z M 1119.402 60.808994 L 1120.9971 60.808994 Q 1121.646 60.808994 1122.0365 60.4075 Q 1122.427 60.006 1122.427 59.335 Q 1122.427 58.653 1122.0365 58.257 Q 1121.646 57.861004 1120.9971 57.861004 L 1119.402 57.861004 L 1119.402 60.808994 Z M 1126.6229 65 L 1126.6229 56.97 L 1129.098 56.97 Q 1129.813 56.97 1130.3519 57.2615 Q 1130.891 57.553005 1131.188 58.07 Q 1131.485 58.586998 1131.485 59.28 Q 1131.485 60.094 1131.067 60.677002 Q 1130.6489 61.259995 1129.9559 61.491 L 1131.595 65 L 1130.506 65 L 1128.933 61.59 L 1127.6019 61.59 L 1127.6019 65 L 1126.6229 65 Z M 1127.6019 60.699 L 1129.098 60.699 Q 1129.714 60.699 1130.088 60.308502 Q 1130.462 59.918 1130.462 59.28 Q 1130.462 58.631 1130.088 58.246002 Q 1129.714 57.861004 1129.098 57.861004 L 1127.6019 57.861004 L 1127.6019 60.699 Z M 1134.9 65 L 1134.9 56.97 L 1139.52 56.97 L 1139.52 57.872 L 1135.879 57.872 L 1135.879 60.358 L 1139.135 60.358 L 1139.135 61.238 L 1135.879 61.238 L 1135.879 64.098 L 1139.52 64.098 L 1139.52 65 L 1134.9 65 Z M 1143.54 61.81 L 1143.54 60.93 L 1147.06 60.93 L 1147.06 61.81 L 1143.54 61.81 Z M 1151.2229 65 L 1151.2229 56.97 L 1153.698 56.97 Q 1154.413 56.97 1154.9519 57.2615 Q 1155.491 57.553005 1155.788 58.07 Q 1156.085 58.586998 1156.085 59.28 Q 1156.085 60.094 1155.667 60.677002 Q 1155.2489 61.259995 1154.5559 61.491 L 1156.195 65 L 1155.106 65 L 1153.533 61.59 L 1152.2019 61.59 L 1152.2019 65 L 1151.2229 65 Z M 1152.2019 60.699 L 1153.698 60.699 Q 1154.314 60.699 1154.688 60.308502 Q 1155.062 59.918 1155.062 59.28 Q 1155.062 58.631 1154.688 58.246002 Q 1154.314 57.861004 1153.698 57.861004 L 1152.2019 57.861004 L 1152.2019 60.699 Z M 1159.5 65 L 1159.5 56.97 L 1164.12 56.97 L 1164.12 57.872 L 1160.479 57.872 L 1160.479 60.358 L 1163.735 60.358 L 1163.735 61.238 L 1160.479 61.238 L 1160.479 64.098 L 1164.12 64.098 L 1164.12 65 L 1159.5 65 Z M 1168.03 65 L 1168.03 56.97 L 1169.02 56.97 L 1169.02 64.098 L 1172.65 64.098 L 1172.65 65 L 1168.03 65 Z M 1175.9 65 L 1175.9 56.97 L 1180.52 56.97 L 1180.52 57.872 L 1176.879 57.872 L 1176.879 60.358 L 1180.135 60.358 L 1180.135 61.238 L 1176.879 61.238 L 1176.879 64.098 L 1180.52 64.098 L 1180.52 65 L 1175.9 65 Z M 1183.55 65 L 1185.64 56.97 L 1186.971 56.97 L 1189.05 65 L 1188.049 65 L 1187.521 62.866 L 1185.09 62.866 L 1184.562 65 L 1183.55 65 Z M 1185.288 62.03 L 1187.312 62.03 L 1186.696 59.555 Q 1186.52 58.851 1186.421 58.378 Q 1186.322 57.905 1186.3 57.762 Q 1186.278 57.905 1186.179 58.378 Q 1186.08 58.851 1185.904 59.544 L 1185.288 62.03 Z M 1194.544 65.11 Q 1193.3779 65.11 1192.6849 64.494 Q 1191.992 63.878002 1191.992 62.8 L 1192.9819 62.8 Q 1192.9819 63.471 1193.411 63.850494 Q 1193.84 64.23 1194.544 64.23 Q 1195.226 64.23 1195.6329 63.834 Q 1196.0399 63.438 1196.0399 62.8 Q 1196.0399 62.316 1195.7815 61.958504 Q 1195.523 61.601 1195.039 61.468998 L 1193.818 61.128 Q 1193.059 60.908 1192.6245 60.3415 Q 1192.19 59.775 1192.19 59.005 Q 1192.19 58.367 1192.476 57.883 Q 1192.762 57.399006 1193.2789 57.1295 Q 1193.7959 56.86 1194.4669 56.86 Q 1195.1489 56.86 1195.6715 57.1295 Q 1196.194 57.399006 1196.491 57.8775 Q 1196.788 58.356 1196.788 58.983006 L 1195.798 58.983006 Q 1195.798 58.433 1195.424 58.086502 Q 1195.0499 57.74 1194.4669 57.74 Q 1193.8839 57.74 1193.521 58.086502 Q 1193.158 58.433 1193.158 58.983006 Q 1193.158 59.423 1193.3944 59.7365 Q 1193.631 60.049995 1194.0599 60.171 L 1195.314 60.523 Q 1196.117 60.743 1196.5625 61.353504 Q 1197.0079 61.964 1197.0079 62.8 Q 1197.0079 63.856 1196.3369 64.483 Q 1195.6659 65.11 1194.544 65.11 Z M 1200.5 65 L 1200.5 56.97 L 1205.12 56.97 L 1205.12 57.872 L 1201.479 57.872 L 1201.479 60.358 L 1204.735 60.358 L 1204.735 61.238 L 1201.479 61.238 L 1201.479 64.098 L 1205.12 64.098 L 1205.12 65 L 1200.5 65 Z"/>
    </g>
    <g>
        <path fill="#6f7570" stroke="none" d="M 1143.9501 306 L 1146.04 297.97 L 1147.371 297.97 L 1149.4501 306 L 1148.449 306 L 1147.921 303.866 L 1145.49 303.866 L 1144.962 306 L 1143.9501 306 Z M 1145.688 303.03 L 1147.712 303.03 L 1147.0961 300.555 Q 1146.92 299.851 1146.821 299.378 Q 1146.722 298.905 1146.7001 298.762 Q 1146.678 298.905 1146.579 299.378 Q 1146.48 299.851 1146.3041 300.544 L 1145.688 303.03 Z M 1154.744 306.11 Q 1153.644 306.11 1153.006 305.494 Q 1152.368 304.878 1152.368 303.8 L 1152.368 300.17 Q 1152.368 299.092 1153.006 298.476 Q 1153.644 297.86 1154.744 297.86 Q 1155.822 297.86 1156.4601 298.4815 Q 1157.098 299.103 1157.098 300.17 L 1156.108 300.17 Q 1156.108 299.488 1155.7505 299.1195 Q 1155.3931 298.751 1154.744 298.751 Q 1154.095 298.751 1153.7266 299.114 Q 1153.358 299.477 1153.358 300.159 L 1153.358 303.8 Q 1153.358 304.482 1153.7266 304.856 Q 1154.095 305.23 1154.744 305.23 Q 1155.3931 305.23 1155.7505 304.856 Q 1156.108 304.482 1156.108 303.8 L 1156.108 302.7 L 1154.48 302.7 L 1154.48 301.798 L 1157.098 301.798 L 1157.098 303.8 Q 1157.098 304.867 1156.4601 305.4885 Q 1155.822 306.11 1154.744 306.11 Z M 1160.412 306 L 1160.412 297.97 L 1162.9971 297.97 Q 1164.119 297.97 1164.7845 298.6135 Q 1165.4501 299.257 1165.4501 300.335 Q 1165.4501 301.413 1164.7845 302.0565 Q 1164.119 302.7 1162.9971 302.7 L 1161.402 302.7 L 1161.402 306 L 1160.412 306 Z M 1161.402 301.809 L 1162.9971 301.809 Q 1163.646 301.809 1164.0365 301.4075 Q 1164.427 301.006 1164.427 300.335 Q 1164.427 299.653 1164.0365 299.257 Q 1163.646 298.861 1162.9971 298.861 L 1161.402 298.861 L 1161.402 301.809 Z M 1168.8301 306 L 1168.8301 297.97 L 1169.8201 297.97 L 1169.8201 305.098 L 1173.4501 305.098 L 1173.4501 306 L 1168.8301 306 Z M 1176.9401 302.81 L 1176.9401 301.93 L 1180.4601 301.93 L 1180.4601 302.81 L 1176.9401 302.81 Z M 1186.579 306.11 Q 1185.468 306.11 1184.819 305.4885 Q 1184.17 304.867 1184.17 303.8 L 1185.16 303.8 Q 1185.16 304.46 1185.545 304.845 Q 1185.93 305.23 1186.59 305.23 Q 1187.25 305.23 1187.635 304.845 Q 1188.02 304.46 1188.02 303.8 L 1188.02 303.25 Q 1188.02 302.59 1187.635 302.205 Q 1187.25 301.82 1186.59 301.82 L 1185.7211 301.82 L 1185.7211 300.962 L 1187.6901 298.872 L 1184.39 298.872 L 1184.39 297.97 L 1188.812 297.97 L 1188.812 298.894 L 1186.876 300.951 Q 1187.866 301.028 1188.438 301.6385 Q 1189.01 302.249 1189.01 303.25 L 1189.01 303.8 Q 1189.01 304.867 1188.3555 305.4885 Q 1187.701 306.11 1186.579 306.11 Z M 1194.7001 306.11 Q 1194.293 306.11 1194.0455 305.868 Q 1193.798 305.626 1193.798 305.241 Q 1193.798 304.834 1194.0455 304.581 Q 1194.293 304.328 1194.7001 304.328 Q 1195.107 304.328 1195.3545 304.581 Q 1195.602 304.834 1195.602 305.241 Q 1195.602 305.626 1195.3545 305.868 Q 1195.107 306.11 1194.7001 306.11 Z M 1202.7001 306.11 Q 1201.589 306.11 1200.9346 305.4665 Q 1200.28 304.823 1200.28 303.745 L 1200.28 300.225 Q 1200.28 299.147 1200.9346 298.5035 Q 1201.589 297.86 1202.7001 297.86 Q 1203.811 297.86 1204.4656 298.5035 Q 1205.12 299.147 1205.12 300.225 L 1205.12 303.745 Q 1205.12 304.46 1204.823 304.9935 Q 1204.526 305.527 1203.9816 305.8185 Q 1203.437 306.11 1202.7001 306.11 Z M 1202.7001 305.263 Q 1203.36 305.263 1203.7615 304.8395 Q 1204.163 304.416 1204.163 303.745 L 1204.163 300.225 Q 1204.163 299.554 1203.7615 299.1305 Q 1203.36 298.707 1202.7001 298.707 Q 1202.04 298.707 1201.6385 299.1305 Q 1201.237 299.554 1201.237 300.225 L 1201.237 303.745 Q 1201.237 304.416 1201.6385 304.8395 Q 1202.04 305.263 1202.7001 305.263 Z M 1202.7001 302.59 Q 1202.4031 302.59 1202.2216 302.425 Q 1202.04 302.26 1202.04 301.952 Q 1202.04 301.655 1202.2216 301.4955 Q 1202.4031 301.336 1202.7001 301.336 Q 1202.9971 301.336 1203.1785 301.4955 Q 1203.36 301.655 1203.36 301.952 Q 1203.36 302.26 1203.1785 302.425 Q 1202.9971 302.59 1202.7001 302.59 Z"/>
    </g>
</svg>
